<?xml version="1.0" encoding="UTF-8" ?>
<!DOCTYPE svg PUBLIC "-//W3C//DTD SVG 1.1//EN" "http://www.w3.org/Graphics/SVG/1.1/DTD/svg11.dtd">
<svg width="196pt" height="40pt" viewBox="0 0 196 40" version="1.1" xmlns="http://www.w3.org/2000/svg">
<g id="test">
<path fill="#ffffff" opacity="1.00" d=" M 2.22 11.17 C 7.30 2.48 18.50 -1.37 27.78 2.70 C 21.92 9.46 10.69 19.48 2.22 11.17 Z" />
<path fill="#ffffff" opacity="1.00" d=" M 24.28 13.31 C 29.96 10.14 31.68 3.11 37.43 0.04 C 37.46 2.73 37.38 5.42 37.19 8.10 C 31.91 11.50 29.04 17.32 24.42 21.42 C 18.10 27.67 7.81 30.91 0.00 25.35 L 0.00 16.72 C 0.21 16.04 0.62 14.70 0.82 14.02 C 7.28 21.00 17.55 18.47 24.28 13.31 Z" />
<path fill="#ffffff" opacity="1.00" d=" M 59.03 7.02 C 64.67 5.25 70.91 5.33 76.54 7.07 C 76.52 16.06 64.34 7.27 61.44 14.00 C 63.63 17.66 68.76 17.52 72.02 19.95 C 77.77 23.08 76.96 32.52 71.18 35.18 C 64.25 38.28 56.40 37.13 49.08 36.50 C 49.50 26.21 63.70 36.41 67.63 28.67 C 66.69 21.50 55.58 23.17 53.46 16.54 C 52.28 12.45 55.11 8.23 59.03 7.02 Z" />
<path fill="#ffffff" opacity="1.00" d=" M 132.83 5.71 C 135.05 5.75 137.26 5.79 139.48 5.85 C 137.95 16.34 136.03 26.77 134.03 37.18 C 131.73 37.18 129.44 37.16 127.14 37.14 C 128.90 26.64 130.69 16.14 132.83 5.71 Z" />
<path fill="#ffffff" opacity="1.00" d=" M 145.52 6.30 C 147.54 5.04 151.30 6.23 150.80 9.02 C 150.91 12.50 146.06 15.19 143.51 12.41 C 141.44 10.44 143.13 7.07 145.52 6.30 Z" />
<path fill="#ffffff" opacity="1.00" d=" M 18.42 30.48 C 27.28 27.76 33.27 20.21 38.16 12.78 C 42.56 24.20 35.39 37.27 23.57 40.00 L 15.47 40.00 C 9.75 38.23 5.21 34.15 1.69 29.42 C 7.05 31.24 12.93 32.57 18.42 30.48 Z" />
<path fill="#ffffff" opacity="1.00" d=" M 81.10 14.30 C 83.38 14.31 85.66 14.33 87.94 14.34 C 87.28 20.44 84.94 26.42 85.80 32.61 C 87.83 32.63 89.86 32.66 91.89 32.69 C 93.16 26.60 94.10 20.46 95.26 14.35 C 97.50 14.33 99.75 14.32 102.00 14.30 C 101.08 21.76 99.88 29.21 97.99 36.49 C 91.84 36.43 83.62 39.40 79.10 33.80 C 77.10 27.41 80.18 20.69 81.10 14.30 Z" />
<path fill="#ffffff" opacity="1.00" d=" M 106.34 15.30 C 112.36 14.38 120.93 12.17 125.25 17.75 C 126.76 24.24 124.14 30.85 123.07 37.25 C 120.77 37.21 118.47 37.16 116.17 37.11 C 116.94 31.79 118.52 26.56 118.71 21.17 C 118.93 17.90 114.32 18.09 112.39 19.21 C 110.65 25.04 110.25 31.17 108.90 37.10 C 106.62 37.14 104.34 37.15 102.07 37.15 C 103.43 29.87 103.78 22.28 106.34 15.30 Z" />
<path fill="#ffffff" opacity="1.00" d=" M 152.60 15.28 C 158.78 14.76 166.98 12.07 171.76 17.28 C 174.12 23.71 170.81 30.64 169.99 37.15 C 167.69 37.17 165.40 37.17 163.11 37.17 C 163.75 31.25 165.88 25.46 165.49 19.47 C 163.43 18.70 161.21 18.68 159.05 18.56 C 158.02 24.69 156.92 30.82 155.79 36.93 C 153.52 37.06 151.25 37.14 148.98 37.20 C 149.82 29.83 151.40 22.59 152.60 15.28 Z" />
<path fill="#ffffff" opacity="1.00" d=" M 182.74 14.82 C 187.88 12.84 193.12 15.41 196.00 19.78 L 196.00 24.59 C 195.86 25.35 195.59 26.87 195.46 27.63 C 190.44 27.64 185.40 27.62 180.41 28.25 C 183.46 34.80 190.15 30.05 195.34 29.85 C 193.06 36.91 183.79 39.44 178.06 34.95 C 171.66 29.41 174.73 17.18 182.74 14.82 M 181.57 23.55 C 184.46 23.64 187.35 23.65 190.24 23.60 C 190.47 16.90 182.42 17.84 181.57 23.55 Z" />
<path fill="#ffffff" opacity="1.00" d=" M 142.07 15.31 C 144.34 15.32 146.61 15.33 148.88 15.35 C 147.69 22.64 146.38 29.91 145.01 37.17 C 142.71 37.16 140.41 37.14 138.12 37.10 C 139.27 29.81 140.53 22.53 142.07 15.31 Z" />
</g>
</svg>
