<?xml version="1.0" standalone="no"?><!DOCTYPE svg PUBLIC "-//W3C//DTD SVG 1.1//EN" "http://www.w3.org/Graphics/SVG/1.1/DTD/svg11.dtd"><svg t="1629339398055" class="icon" viewBox="0 0 1024 1024" version="1.1" xmlns="http://www.w3.org/2000/svg" p-id="1878" xmlns:xlink="http://www.w3.org/1999/xlink" width="30" height="30"><defs><style type="text/css"></style></defs><path d="M914.944 608.768H848.896v-138.24c0-11.264-11.264-22.016-22.016-22.016h-292.864v-88.064H655.36c16.384 0 27.648-11.264 27.648-27.648V150.528c0-16.384-11.264-27.648-27.648-27.648H378.88c-16.384 0-27.648 11.264-27.648 27.648v182.272c0 16.384 11.264 27.648 27.648 27.648h110.592v88.576H207.872c-11.264 0-22.016 11.264-22.016 22.016v143.36H108.544c-16.384 0-27.648 11.264-27.648 27.648v193.536c0 16.384 11.264 27.648 27.648 27.648h193.536c16.384 0 27.648-11.264 27.648-27.648V642.048c0-16.384-11.264-27.648-27.648-27.648h-71.68V487.424h265.216v121.344h-77.824c-16.384 0-27.648 11.264-27.648 27.648v193.536c0 16.384 11.264 27.648 27.648 27.648h193.536c16.384 0 27.648-11.264 27.648-27.648v-193.536c0-16.384-11.264-27.648-27.648-27.648h-77.312V487.424H804.864v121.344h-88.576c-16.384 0-27.648 11.264-27.648 27.648v193.536c0 16.384 11.264 27.648 27.648 27.648h193.536c16.384 0 27.648-11.264 27.648-27.648v-193.536c5.12-11.264-11.776-27.648-22.528-27.648z" fill="#323a52" p-id="1879"></path><path d="M401.408 172.544h231.936v143.36H401.408zM130.56 658.432H279.552v154.624H130.56zM439.808 658.432H588.8v154.624H439.808zM743.424 658.432h148.992v154.624H743.424z" fill="#323a52" p-id="1880"></path></svg>