<svg id="图层_1" data-name="图层 1" xmlns="http://www.w3.org/2000/svg" xmlns:xlink="http://www.w3.org/1999/xlink" viewBox="0 0 79 56.84"><defs><style>.cls-1,.cls-2{fill-rule:evenodd;}.cls-1{fill:url(#GradientFill_1);}.cls-2{fill:#231815;}</style><radialGradient id="GradientFill_1" cx="52.7" cy="11.01" r="24.53" gradientUnits="userSpaceOnUse"><stop offset="0" stop-color="#fac500"/><stop offset="1" stop-color="#e73e0c"/></radialGradient></defs><title>logo_top_text_bottom</title><path class="cls-1" d="M61.5,3A18.42,18.42,0,1,0,79.67,18.34H72.49c-1.49,0-2,.53-2.23,1.36H78l-.82,2.06c-1.2,3-3.71,3.11-6.66,3.11H57a3.57,3.57,0,0,0-3.91,2.91h3.33a2.47,2.47,0,0,0,2.72-1.89h5.29c-.8,2.26-2.14,3-4.8,3H47.58c1.26-3.77,3.5-5.17,8.13-5.17H69c1.52,0,2.52-.28,3.11-1.75l.46-1.16h-8c1.11-3,3.08-3.62,5.71-3.62H79c1.58,0,3.87-.16,5-2.86l1-2.41c-1.23,1.31-3.17,1.46-5.33,1.46H67.84c-2.31,0-4.05.8-4.8,2.67L60.4,22.71h-5l2.51-6.31C59,13.58,62,12.27,66.49,12.27h11A18.42,18.42,0,0,0,61.5,3Z" transform="translate(-22 -3)"/><path class="cls-2" d="M24.22,48.61V48.2c0-.38.22-.58.66-.62s.74.19.77.57v.46h1.44a.77.77,0,0,1,.72.61v9.13a.87.87,0,0,1-.93.87H22.73q-.77,0-.72-.72V49.58c-.06-.72.28-1,1-1Zm0,4.4V50.1h-.77V53Zm2.15-2.91H25.6V53h.77V50.1Zm-2.92,7.73h.77V54.4h-.77v3.43Zm2.92,0V54.4H25.6v3.43Zm3-9.74h3.08c.75,0,1,.5.82,1.39-.1.38-.41,1.32-.92,2.82a3.26,3.26,0,0,0-.26.66,2.09,2.09,0,0,0,.31.62.16.16,0,0,0,.1.05,5,5,0,0,1,.92,2.46c0,1.71-.6,2.58-1.69,2.62s-1.74-.19-1.64-.77a.65.65,0,0,1,.21-.62c.1-.17.46-.22,1.07-.15.41.1.62-.19.62-.87a4.89,4.89,0,0,0-.92-2.16c-.41-.41-.6-.71-.57-.92a2.05,2.05,0,0,1,.31-1c.31-.95.6-1.74.87-2.35.07-.21,0-.31-.25-.31H30.11c-.13,0-.2.09-.2.26v9.38c0,.37-.29.58-.77.61s-.72-.24-.72-.61V49.07c-.07-.68.26-1,1-1Zm12.5.26h4.56a.71.71,0,0,1,.72.72c0,.48-.27.72-.72.72H41.89v.41h3.28c.79,0,1.16.35,1.13,1.17v2c0,.59-.24.86-.62.82.62.55,1,.93,1.23,1.13a.72.72,0,0,1,.05.93.55.55,0,0,1-.82.15,2.69,2.69,0,0,1-.4-.36c-.28,0-.65.07-1.13.1a18,18,0,0,1-2.36,0l.61.77.16.16a.59.59,0,0,1-.21.82.66.66,0,0,1-.87-.06,5.08,5.08,0,0,1-.77-.87.59.59,0,0,1,0-.76l-5.48,0a.71.71,0,0,1-.77-.67.72.72,0,0,1,.72-.77h4.66v-.46H36.92c-.65,0-1-.33-.92-1.08v-2c0-.72.3-1.07.92-1.07h3.43v-.41H35.64c-.41,0-.62-.24-.62-.72a.63.63,0,0,1,.62-.72h4.71c0-.44.26-.68.77-.71a.72.72,0,0,1,.77.71Zm-1.54,3.39v-.37H37.58a.14.14,0,0,0-.15.16v.21Zm4.51,0v-.21a.14.14,0,0,0-.15-.16H41.89v.37Zm-4.51,1.38v-.36H37.43V53c0,.11,0,.16.15.16ZM44.86,53v-.2h-3v.36h2.82c.1,0,.15,0,.15-.16Zm-3,1.39v.46a20.2,20.2,0,0,0,2.46-.05L44,54.35Zm4,4.56a.53.53,0,0,0,.82.15c.34-.27.43-.56.26-.87s-.5-.87-.88-1.48a.18.18,0,0,1,0-.11.77.77,0,0,0-1-.3.61.61,0,0,0-.15,1c.37.62.61,1,.71,1.13s.21.34.31.51Zm-7.48-.61c-.07.88.47,1.31,1.64,1.28h3c1.27.07,1.86-.48,1.8-1.64,0-.58-.26-.87-.77-.87a.79.79,0,0,0-.52.2.87.87,0,0,0-.2.51V58a.23.23,0,0,1-.31.2H40.3c-.24,0-.36-.08-.36-.25V57c0-.41-.29-.63-.77-.66s-.71.25-.71.66V58.3Zm-3.13.25a.69.69,0,0,0,.1,1,.67.67,0,0,0,1-.05,11.13,11.13,0,0,0,1.17-1.8.69.69,0,0,0-.15-1,.73.73,0,0,0-1,.2,12.6,12.6,0,0,1-1.08,1.64Zm13.78-10.3H59.82c.41,0,.63.29.67.77s-.26.77-.67.77H53.11A12.51,12.51,0,0,1,53,51.48h5.23c.92-.07,1.35.37,1.28,1.33,0,1.33,0,2.79-.15,4.36v.15a2,2,0,0,1-2.31,2.1,8.58,8.58,0,0,1-2.82-.56c-.54-.14-.71-.45-.51-.92s.5-.6,1.08-.46a6.71,6.71,0,0,0,2,.41c.61.1,1-.28,1.07-1.13v-.31c.07-.79.1-1.79.1-3,0-.31-.11-.47-.35-.47H52.9a11.49,11.49,0,0,1-2.72,6c-.47.55-.94.7-1.38.47s-.41-.76,0-1.24q2.82-3.06,2.77-8.45H49.11c-.41,0-.63-.26-.67-.77s.26-.74.67-.77Zm14.75.46h3.43l-.05-.15c-.1-.41.12-.7.67-.87a1,1,0,0,1,1.07.56l.16.46h3.43c.86,0,1.28.36,1.28,1.08a4.34,4.34,0,0,1-.3,2,.69.69,0,0,1-.82.45.71.71,0,0,1-.52-.82,2.28,2.28,0,0,0,.16-.87c0-.2-.09-.3-.26-.3h-8q-.15,0-.15.15v1.18a.77.77,0,0,1-.77.82.71.71,0,0,1-.72-.82V50.1c-.06-1,.41-1.42,1.44-1.39Zm1.08,2a.7.7,0,0,0-.72.72.65.65,0,0,0,.72.71h1.58a14.93,14.93,0,0,1-3.38,1.29.72.72,0,0,0-.46.92q.21.57.87.36a24.41,24.41,0,0,0,3.23-1.23,2.2,2.2,0,0,0,.41-.21.46.46,0,0,0,.15.16,18.38,18.38,0,0,1-4.46,2.36.72.72,0,0,0-.35.92.59.59,0,0,0,.82.36,14.35,14.35,0,0,0,4.71-2.57c.1.18.21.36.31.57A13.7,13.7,0,0,1,63,58c-.48.17-.67.44-.57.82a.77.77,0,0,0,1,.46,17.09,17.09,0,0,0,5.33-2.77,3.47,3.47,0,0,0,0,.46,1.63,1.63,0,0,0,0,.36q.21,1.13-1.74.93a.76.76,0,0,0-.92.61.82.82,0,0,0,.76.87q3.33.4,3.29-1.84a9.68,9.68,0,0,0-.36-2.72.53.53,0,0,0,.2,0,.45.45,0,0,1,.21-.1A7.13,7.13,0,0,0,73,59.42a.69.69,0,0,0,1-.1c.31-.41.29-.73-.05-1A5.65,5.65,0,0,1,71.6,54.6,6.92,6.92,0,0,0,72.83,54a.71.71,0,0,0,.41-1,.69.69,0,0,0-.92-.41,16,16,0,0,1-3,1.23,5.93,5.93,0,0,0-.66-1,.72.72,0,0,1-.16-.25,3.26,3.26,0,0,0,.72-.42H71c.37,0,.57-.23.61-.71s-.24-.68-.61-.72Zm13.41-2.15h.88c.3,0,.48.25.51.67s-.21.61-.51.61H77.94a2,2,0,0,1-.2.36c-.17.37-.31.65-.41.82H79c.27,0,.41.25.41.67s-.19.61-.46.61h-.67v1.43h.92q.52.06.57.72t-.57.72h-.92v2c0,.1.14,0,.41-.36l.16-.15a.65.65,0,0,1,.92-.06l.1.21a.19.19,0,0,0,.1,0V49c0-.62.29-.93,1-.93h5c.61.07.94.3,1,.67v4.82a1.22,1.22,0,0,1-.1.56c.68.38.7.87,0,1.49A11.47,11.47,0,0,1,85.07,57a5.31,5.31,0,0,0,2,1.28c.55.17.7.53.46,1.08s-.65.5-1.23.26A7.34,7.34,0,0,1,82,54.45h-.66v3.38a3.64,3.64,0,0,0,.87-.56.7.7,0,0,1,.92.1c.31.34.34.65.1.93-.47.3-1,.63-1.58,1a1.09,1.09,0,0,0-.36.31c-.86.37-1.32.27-1.39-.31V57.48a5,5,0,0,1-1.43,1.64c-1,.71-1.54.64-1.64-.21V55.22H76c-.38,0-.59-.24-.62-.72a.67.67,0,0,1,.62-.72h.92V52.35h-.1a.75.75,0,0,1-1.18.31q-.57-.25.15-1.59a12.35,12.35,0,0,0,1.18-3q.21-.6,1-.51c.45.14.58.48.41,1Zm3,1.07v.93h4.05v-1c0-.1-.07-.15-.1-.15H81.58c-.17,0-.23.07-.2.2Zm0,2.31v1.18h3.89c.11,0,.16,0,.16-.1V52Zm4.51,2.46H83.43a3.92,3.92,0,0,0,.77,1.44.17.17,0,0,1,0,0,10.12,10.12,0,0,0,1.64-1.39Zm3.47-4.25a20.16,20.16,0,0,0,2-2.21c.65-.47,1.1-.3,1.34.52a6.16,6.16,0,0,1-2.57,2.81c-.82.07-1.07-.3-.77-1.12Zm4.87-2h5.33a.76.76,0,0,1,.77.71c0,.52-.2.77-.61.77H94.23a.68.68,0,0,1-.77-.71.75.75,0,0,1,.77-.77ZM92,53.12a4.3,4.3,0,0,0,.61-1.18.77.77,0,0,0-.3-.92.65.65,0,0,0-.88.2,24.33,24.33,0,0,1-2.25,2.92.73.73,0,0,0,.15,1.13c.38.17.77,0,1.18-.41v4q0,.66.72.72a.74.74,0,0,0,.77-.72V53.12Zm1.69-1.95h6.66c.41,0,.63.29.67.77s-.21.77-.62.77h-1v5q-.15,2.06-3.59,1.33c-.61-.17-.94-.46-1-.87a.68.68,0,0,1,.92-.66c1.47.48,2.17.34,2.1-.41V52.71H93.67a.71.71,0,0,1-.77-.77A.74.74,0,0,1,93.67,51.17Z" transform="translate(-22 -3)"/></svg>