<svg id="图层_1" data-name="图层 1" xmlns="http://www.w3.org/2000/svg" xmlns:xlink="http://www.w3.org/1999/xlink" viewBox="0 0 94.9 83.61"><defs><style>.cls-1{fill-rule:evenodd;fill:url(#GradientFill_1);}</style><radialGradient id="GradientFill_1" cx="38.71" cy="39.76" r="55.66" gradientUnits="userSpaceOnUse"><stop offset="0" stop-color="#fac500"/><stop offset="1" stop-color="#e73e0c"/></radialGradient></defs><title>logo</title><path class="cls-1" d="M58.68,21.59a41.81,41.81,0,1,0,41.8,41.81,42.36,42.36,0,0,0-.58-7H83.6c-3.38,0-4.54,1.19-5.06,3.08H96.16L94.3,64.16c-2.73,6.85-8.43,7.06-15.11,7.06H48.45c-5.2,0-7.48,2.21-8.87,6.6h7.55c3.34,0,5.15-1.14,6.18-4.28h12c-1.82,5.13-4.87,6.85-10.92,6.85H27.09C29.93,71.83,35,68.65,45.53,68.65H75.58c3.45,0,5.72-.62,7-4l1.05-2.64H65.5c2.51-6.77,7-8.21,13-8.21H98.32c3.6,0,8.79-.37,11.25-6.49l2.2-5.47c-2.8,3-7.2,3.32-12.09,3.32H73.07c-5.26,0-9.21,1.82-10.9,6l-6,15.08H44.71L50.41,52C53,45.6,59.83,42.63,70,42.63H95A41.79,41.79,0,0,0,58.68,21.59Z" transform="translate(-16.87 -21.59)"/></svg>