<?xml version="1.0" encoding="UTF-8" ?>
<!DOCTYPE svg PUBLIC "-//W3C//DTD SVG 1.1//EN" "http://www.w3.org/Graphics/SVG/1.1/DTD/svg11.dtd">
<svg width="773pt" preserveAspectRatio="none" height="716pt" viewBox="0 0 773 716" version="1.1" xmlns="http://www.w3.org/2000/svg">
<g id="#eb642dd2">
<path fill="#eb642d" opacity="0.82" d=" M 328.88 12.73 C 331.54 7.95 335.76 4.19 340.32 1.28 C 344.26 0.58 348.30 1.03 352.28 1.14 C 349.99 4.50 347.22 7.49 344.43 10.43 C 340.59 14.94 333.99 12.83 328.88 12.73 Z" />
<path fill="#eb642d" opacity="0.82" d=" M 341.95 17.90 C 353.36 18.90 356.61 4.21 366.09 1.11 C 446.32 1.06 526.58 0.94 606.80 1.17 C 614.45 6.09 619.55 14.55 626.80 20.19 C 628.29 21.18 630.23 20.87 631.94 21.02 C 661.98 20.95 692.02 21.06 722.06 20.95 C 726.50 20.38 728.90 24.70 731.74 27.29 C 735.64 31.71 740.95 35.03 743.68 40.39 C 744.47 44.88 743.88 49.47 744.01 54.00 C 744.00 208.67 744.00 363.33 744.01 518.00 C 743.91 522.23 744.39 526.51 743.77 530.72 C 740.74 534.67 737.82 538.95 733.44 541.52 C 734.82 562.25 733.44 583.09 734.15 603.85 C 735.63 610.62 745.60 612.46 745.38 619.96 C 745.45 645.18 745.40 670.42 745.41 695.62 C 742.35 699.71 737.64 702.36 734.27 706.26 C 731.04 710.34 725.48 708.79 720.99 709.03 C 655.66 708.96 590.33 709.03 525.01 708.99 C 522.82 709.18 521.42 707.29 519.90 706.06 C 513.61 700.04 507.10 694.21 501.41 687.60 C 500.13 685.91 498.11 685.03 496.01 685.15 C 366.66 685.13 237.31 685.16 107.97 685.14 C 103.42 685.17 101.03 680.63 98.06 677.90 C 86.69 666.30 74.82 655.18 64.06 642.99 C 60.07 638.03 52.14 635.23 51.98 628.02 C 52.08 602.33 51.95 576.64 52.05 550.96 C 51.76 546.43 54.49 540.86 50.75 537.19 C 38.86 524.42 25.45 513.09 14.44 499.51 C 11.96 496.93 7.60 495.22 8.02 490.95 C 7.94 456.60 8.05 422.23 7.97 387.88 C 7.39 382.37 12.95 379.63 15.92 375.92 C 18.83 372.27 22.46 369.24 26.93 367.73 C 27.00 329.85 27.11 291.95 26.88 254.08 C 24.42 243.92 10.30 241.51 8.06 231.00 C 7.94 171.65 8.12 112.28 7.96 52.92 C 7.40 47.78 12.13 44.54 15.15 41.11 C 22.16 34.45 28.52 27.15 35.31 20.26 C 36.98 18.37 39.63 18.08 41.99 17.99 C 141.98 17.95 241.97 18.11 341.95 17.90 M 365.46 5.40 C 358.63 10.36 354.22 19.26 346.01 21.90 C 244.33 22.08 142.63 21.90 40.94 21.99 C 37.92 21.64 35.93 24.14 34.12 26.14 C 28.99 32.31 23.65 38.33 17.75 43.78 C 15.01 46.57 11.35 49.52 12.00 53.91 C 12.12 112.91 11.84 171.92 12.14 230.90 C 15.42 239.66 26.96 243.10 29.94 252.07 C 29.99 290.33 30.16 328.63 29.85 366.88 C 25.71 374.89 15.61 378.78 11.98 387.10 C 11.60 420.40 11.99 453.73 11.78 487.05 C 11.99 489.59 11.43 492.67 13.39 494.68 C 23.05 504.34 32.97 513.70 42.26 523.73 C 47.75 529.67 57.71 534.46 56.10 543.95 C 55.88 571.65 56.06 599.35 56.00 627.05 C 55.84 629.25 56.53 631.38 58.22 632.85 C 74.02 648.67 89.92 664.39 105.82 680.12 C 107.10 681.61 109.02 682.08 110.93 682.00 C 239.65 682.00 368.37 681.99 497.08 682.01 C 504.82 682.92 508.63 691.18 514.29 695.69 C 519.03 699.04 521.95 706.34 528.63 705.63 C 593.79 705.69 658.96 705.65 724.13 705.65 C 732.38 706.66 737.53 698.49 741.75 692.74 C 742.36 669.49 741.77 646.19 742.04 622.92 C 743.50 614.01 730.36 612.39 730.00 604.04 C 729.98 584.00 730.01 563.96 729.98 543.93 C 729.63 537.85 736.90 536.06 739.66 531.61 C 740.69 526.82 740.04 521.86 740.18 517.00 C 740.18 362.33 740.16 207.67 740.19 53.00 C 739.90 47.20 742.06 39.56 735.67 36.33 C 729.58 32.79 727.21 22.99 719.08 23.98 C 688.13 23.90 657.14 24.24 626.21 23.83 C 619.12 19.30 613.50 12.47 607.76 6.29 C 606.62 4.84 604.67 5.12 603.06 4.99 C 527.38 5.01 451.69 5.01 376.01 5.00 C 372.50 5.08 368.92 4.66 365.46 5.40 Z" />
<path fill="#eb642d" opacity="0.82" d=" M 627.64 3.19 C 653.79 2.76 679.95 3.23 706.10 3.10 C 712.21 2.44 715.38 8.66 718.43 12.85 C 692.00 13.13 665.55 13.05 639.13 12.91 C 634.57 10.89 631.36 6.48 627.64 3.19 Z" />
<path fill="#eb642d" opacity="0.82" d=" M 18.98 187.80 C 24.93 192.31 33.38 197.36 31.00 206.16 C 25.32 201.14 16.16 197.00 18.98 187.80 Z" />
<path fill="#eb642d" opacity="0.82" d=" M 19.27 207.63 C 23.17 210.74 27.51 213.50 30.65 217.44 C 31.76 224.21 30.82 231.18 30.92 238.02 C 26.90 234.41 22.32 231.21 19.20 226.74 C 18.57 220.40 18.95 213.99 19.27 207.63 Z" />
<path fill="#eb642d" opacity="0.82" d=" M 4.75 264.79 C 7.18 262.68 11.10 260.01 13.86 263.17 C 17.14 266.10 11.95 268.86 12.05 272.03 C 11.90 295.37 12.09 318.72 11.96 342.07 C 11.60 346.64 15.76 350.76 12.90 355.19 C 10.97 355.15 9.03 355.11 7.10 355.06 C 4.71 350.36 8.45 345.87 8.03 341.05 C 7.96 318.67 8.02 296.29 8.00 273.91 C 8.22 270.52 6.31 267.62 4.75 264.79 Z" />
<path fill="#eb642d" opacity="0.82" d=" M 763.06 405.98 C 764.32 405.99 765.59 406.01 766.87 406.04 C 766.99 449.39 766.82 492.74 766.97 536.08 C 768.09 543.61 756.39 544.54 757.01 551.93 C 756.95 565.97 757.06 580.01 756.97 594.05 C 756.01 605.12 772.20 608.80 771.07 619.94 C 770.90 635.97 771.09 652.00 770.97 668.03 C 769.67 668.00 768.37 667.98 767.09 667.98 C 766.99 652.30 767.01 636.62 767.09 620.95 C 768.27 609.96 753.11 606.70 753.02 596.06 C 753.20 581.21 752.78 566.33 753.22 551.48 C 753.12 544.20 763.53 542.31 763.00 535.05 C 763.04 492.03 762.91 449.00 763.06 405.98 Z" />
<path fill="#eb642d" opacity="0.82" d=" M 29.06 561.34 C 30.77 559.13 33.55 559.24 35.98 559.90 C 36.40 562.08 36.80 564.27 37.13 566.48 C 33.03 568.99 34.14 573.94 34.06 578.00 C 34.14 599.03 34.11 620.06 34.06 641.08 C 34.24 642.70 33.88 644.65 35.02 645.99 C 41.14 652.54 47.86 658.50 54.57 664.44 C 65.26 675.74 75.44 687.63 87.59 697.41 C 90.99 700.00 92.91 705.60 97.94 705.00 C 157.96 704.98 217.99 705.04 278.02 704.97 C 281.10 705.16 283.49 703.01 286.16 701.86 C 289.55 701.10 294.02 705.89 290.68 708.64 C 287.17 713.01 282.31 707.56 278.05 707.99 C 220.04 708.04 162.02 707.96 104.01 708.03 C 99.23 707.87 93.48 709.25 89.97 705.07 C 74.92 690.79 60.73 675.63 45.76 661.27 C 41.49 655.26 33.90 651.82 31.16 644.81 C 30.72 620.88 31.18 596.90 30.97 572.96 C 30.94 568.97 27.75 565.38 29.06 561.34 Z" />
<path fill="#eb642d" opacity="0.82" d=" M 314.20 705.29 C 315.60 702.86 317.84 700.15 320.85 700.01 C 324.32 701.48 326.81 705.39 330.95 704.99 C 371.32 704.97 411.71 704.94 452.09 705.01 C 457.53 705.24 462.78 700.95 468.06 704.12 C 467.97 706.01 467.88 707.90 467.80 709.80 C 462.81 712.63 458.16 708.25 453.05 708.65 C 412.36 708.77 371.65 708.67 330.95 708.70 C 326.76 708.33 323.91 712.09 320.08 712.89 C 316.77 712.11 313.45 708.90 314.20 705.29 Z" />
</g>
</svg>
