<?xml version="1.0" standalone="no"?><!DOCTYPE svg PUBLIC "-//W3C//DTD SVG 1.1//EN" "http://www.w3.org/Graphics/SVG/1.1/DTD/svg11.dtd"><svg t="1629363459029" class="icon" viewBox="0 0 1024 1024" version="1.1" xmlns="http://www.w3.org/2000/svg" p-id="2802" width="128" height="128" xmlns:xlink="http://www.w3.org/1999/xlink"><defs><style type="text/css"></style></defs><path d="M511.4 99.5c-228.3 0-413.3 185.1-413.3 413.3s185.1 413.3 413.3 413.3S924.7 741 924.7 512.8 739.7 99.5 511.4 99.5z m73 597c-101.5 98.4-135.9 69.4-135.9 69.4v-0.1c-16.5-7.5-25.8-26.2-20.9-44.3l65.9-244.6c-3-10.7-14.9-2.4-14.9-2.4l-43.3 36.8c-0.7 0.8-1.4 1.5-2.3 2.2l-0.5 0.5-0.1-0.1c-2.1 1.4-4.6 2.3-7.4 2.3-7.3 0-13.2-5.9-13.2-13.2 0-3.3 1.2-6.3 3.2-8.6l-0.1-0.2C474.5 442 511 428.7 531.6 427c3-0.3 6-0.3 9.1 0.1 6.5 0.7 10.3 2.6 12.1 3.7 15.7 7.9 24.3 26.1 19.5 43.6l-65.6 243.5c1.4 9.3 15 1.5 15 1.5l41.4-38.9c0.6-0.8 1.3-1.6 2.1-2.3l0.5-0.5 0.1 0.1c2-1.5 4.5-2.5 7.3-2.6 7.3-0.4 13.4 5.2 13.8 12.5 0.2 3.3-0.9 6.3-2.8 8.8h0.3z m-9.1-361.2c-23.6 0-42.8-19.1-42.8-42.8 0-23.6 19.1-42.8 42.8-42.8 23.6 0 42.8 19.1 42.8 42.8 0 23.6-19.2 42.8-42.8 42.8z" fill="#323a52" p-id="2803"></path></svg>