<svg height="443" xmlns="http://www.w3.org/2000/svg" width="329" xmlns:xlink="http://www.w3.org/1999/xlink" viewBox="0 0 329 442.871">
    <defs/>
    <g transform="translate(3.03,3)">
        <g transform="translate(-0,-0)">
            <path stroke-width="3" stroke="#ffffff" id="shape1" fill="#67c23a" transform="translate(0.76,0)" d="M0,79.9L2.1,74.4L177.1,0L295.4,30.8L115.7,149.6L0,79.9z"/>
            <path stroke-width="3" stroke="#ffffff" id="shape2" fill="#67c23a" transform="translate(63.37,30.74)" d="M46.4,363.1L233.5,260.6L233.5,3.6L49.1,87.9L0,237.4L46.4,363.1z"/>
            <path stroke-width="3" stroke="#ffffff" id="shape3" fill="#67c23a" transform="translate(-0.03,74.44)" d="M3.7,0L108.7,41.7C111,42.3,112.2,44.5,112.6,45.6L112.6,316C112.6,318.1,110.7,319.3,108.6,319.3L3.8,267.5C.9,265.9,.4,265.1,0,263.6L0,3.7C0,1.5,1.6,0,3.7,0z"/>
            <path stroke-width="3" stroke="#ffffff" id="shape4" fill="#67c23a" transform="translate(101.02,28.19)" d="M0,85.9C8,89.2,8.9,89.1,14.7,94.2C17.9,97,19.4,105.4,19.4,105.4L195.5,7.7C195.5,7.7,196.5,3.9,194.9,2.6C193.6,1.5,182.6,0,182.6,0L0,85.9z"/>
            <path stroke-width="3" stroke="#ffffff" id="shape5" fill="#67c23a" transform="translate(100,113.29)" d="M-0,0C4.9,0,19.6,6.9,20.3,19C20.6,23.1,20.3,273.7,20.3,273.7C20.3,273.7,10.4,281.8,9.2,280.7C8.1,279.3,.2,276.6,.2,276.6L-0,0z"/>
            <path stroke-width="3" stroke="#ffffff" id="shape6" fill="#67c23a" transform="translate(0.44,76.45)" d="M67,22.9L33.5,279.9L.1,265.5L.1,1C.1,1,-1,-1,3.9,.5L67,22.9z"/>
            <g transform="translate(0.25,108.34)">
                <path stroke-width="3" stroke="#ffffff" id="shape7" fill="#67c23a" transform="translate(0.4,-0)" d="M0,0L0,5.7L61.3,34.2L61.3,28.3L0,0z"/>
                <path stroke-width="3" stroke="#ffffff" id="shape8" fill="#67c23a" transform="translate(0.4,38.61)" d="M0,0L0,6.3L61.3,34.6L61.3,27.6L0,0z"/>
                <path stroke-width="3" stroke="#ffffff" id="shape9" fill="#67c23a" transform="translate(-0,77.53)" d="M0,0L0,6.7L61.7,35.3L61.7,29L0,0z"/>
                <path stroke-width="3" stroke="#ffffff" id="shape10" fill="#67c23a" transform="translate(0.55,117.82)" d="M0,0L0,6.7L60.8,34.6L60.8,28.3L0,0z"/>
                <path stroke-width="3" stroke="#ffffff" id="shape11" fill="#67c23a" transform="translate(56.78,26.52)" d="M0,0L.1,5.6L55.1,29.8L55.1,24.5L0,0z"/>
                <path stroke-width="3" stroke="#ffffff" id="shape12" fill="#67c23a" transform="translate(56.78,64.21)" d="M0,0L0,7L55.5,32L55.5,25.6L0,0z"/>
                <path stroke-width="3" stroke="#ffffff" id="shape13" fill="#67c23a" transform="translate(56.46,104.17)" d="M0,0L55.8,25.3L55.8,31.3L0,7L0,0z"/>
                <path stroke-width="3" stroke="#ffffff" id="shape14" fill="#67c23a" transform="translate(56.46,143.46)" d="M0,0L55.8,26.3L55.8,32.3L0,7L0,0z"/>
                <path stroke-width="3" stroke="#ffffff" id="shape15" fill="#67c23a" transform="translate(59.74,27.85)" d="M0,0L41.6,18.5L46.3,27L.1,6.3L0,0z"/>
                <path stroke-width="3" stroke="#ffffff" id="shape16" fill="#67c23a" transform="translate(59.02,64.88)" d="M0,0L41.2,19.2L46.2,28.8L.3,7.7L0,0z"/>
                <path stroke-width="3" stroke="#ffffff" id="shape17" fill="#67c23a" transform="translate(59.54,105.37)" d="M0,0L41.6,18.6L46.3,28L.1,7.2L0,0z"/>
                <path stroke-width="3" stroke="#ffffff" id="shape18" fill="#67c23a" transform="translate(59.54,145.27)" d="M0,0L41.6,18.5L46.3,27L.1,6.3L0,0z"/>
                <path stroke-width="3" stroke="#ffffff" id="shape19" fill="#67c23a" transform="translate(59.54,145.27)" d="M0,0L48.1,22.4L48.1,28.3L6.6,9.9L0,0z"/>
                <path stroke-width="3" stroke="#ffffff" id="shape20" fill="#67c23a" transform="translate(60.33,105.21)" d="M0,0L48.1,22.4L48.1,28.3L6.6,9.9L0,0z"/>
                <path stroke-width="3" stroke="#ffffff" id="shape21" fill="#67c23a" transform="translate(60.49,66.05)" d="M0,0L48.1,22.4L48.1,28.3L6.6,9.9L0,0z"/>
                <path stroke-width="3" stroke="#ffffff" id="shape22" fill="#67c23a" transform="translate(60.49,27.29)" d="M0,0L48.1,22.4L48.1,28.3L6.6,9.9L0,0z"/>
            </g>
        </g>
        <g transform="translate(181.09,236.41)">
            <path stroke-width="3" stroke="#ffffff" id="shape23" fill="#67c23a" transform="translate(0,-0)" d="M0,14.9L28.3,0L141.9,52.3L111.9,70.1L0,14.9z"/>
            <path stroke-width="3" stroke="#ffffff" id="shape24" fill="#67c23a" transform="translate(111.89,52.27)" d="M0,17.9L0,129.3L30,112.8L30,0L0,17.9z"/>
            <path stroke-width="3" stroke="#ffffff" id="shape25" fill="#67c23a" transform="translate(0,14.87)" d="M111.9,55.3L0,0L0,106.4L111.9,166.7L111.9,55.3z"/>
            <path stroke-width="3" stroke="#ffffff" id="shape26" fill="#67c23a" transform="translate(0,14.87)" d="M0,0L0,18.6L111.6,77L111.9,55.3L0,0z"/>
            <path stroke-width="3" stroke="#ffffff" id="shape27" fill="#67c23a" transform="translate(0.01,14.87)" d="M0,0L0,18.6L32.7,35.7L32.7,16.2L0,0z"/>
            <path stroke-width="3" stroke="#ffffff" id="shape28" fill="#67c23a" transform="translate(90.06,59.65)" d="M0,0L0,20.9L21.6,32.2L21.8,9.9L0,0z"/>
            <path stroke-width="3" stroke="#ffffff" id="shape29" fill="#67c23a" transform="translate(0,52.15)" d="M0,0L0,23.2L111.6,82.9L111.9,61.4L0,0z"/>
            <path stroke-width="3" stroke="#ffffff" id="shape30" fill="#67c23a" transform="translate(0,75.33)" d="M0,0L0,21.7L111.6,80.1L111.6,59.7L0,0z"/>
            <path stroke-width="3" stroke="#ffffff" id="shape31" fill="#67c23a" transform="translate(0,33.51)" d="M0,0L0,18.6L111.9,80.1L111.6,58.3L0,0z"/>
            <path stroke-width="3" stroke="#ffffff" id="shape32" fill="#67c23a" transform="translate(16.37,42.31)" d="M0,0L0,18.7L59.5,51.5L59.5,31.1L0,0z"/>
            <path stroke-width="3" stroke="#ffffff" id="shape33" fill="#67c23a" transform="translate(0,52.15)" d="M21.6,11.9L21.6,34.7L0,23.2L0,0L21.6,11.9z"/>
            <path stroke-width="3" stroke="#ffffff" id="shape34" fill="#67c23a" transform="translate(52.68,80.84)" d="M0,0L0,22.8L58.9,54.2L59.2,32.7L0,0z"/>
            <path stroke-width="3" stroke="#ffffff" id="shape35" fill="#67c23a" transform="translate(33.02,92.94)" d="M0,0L0,21.2L44.8,45.1L44.8,24.2L0,0z"/>
            <path stroke-width="3" stroke="#ffffff" id="shape36" fill="#67c23a" transform="translate(0,97.08)" d="M19.1,9.9L19.1,34.7L0,24.2L0,0L19.1,9.9z"/>
            <path stroke-width="3" stroke="#ffffff" id="shape37" fill="#67c23a" transform="translate(75.87,137.56)" d="M0,0L0,24.2L36,44L35.7,17.8L0,0z"/>
        </g>
    </g>
</svg>
