<svg height="466" xmlns="http://www.w3.org/2000/svg" width="348" xmlns:xlink="http://www.w3.org/1999/xlink" viewBox="0 0 348 465.871">
    <defs/>
    <g transform="translate(4.04,4)">
        <g transform="translate(-0,-0)">
            <path stroke-width="4" stroke="#ffffff" id="shape1" fill="#e5d926" transform="translate(0.8,0)" d="M0,84.2L2.2,78.4L186.4,0L310.9,32.4L121.7,157.5L0,84.2z"/>
            <path stroke-width="4" stroke="#ffffff" id="shape2" fill="#e5d926" transform="translate(66.7,32.35)" d="M48.8,382.2L245.8,274.3L245.8,3.8L51.7,92.5L0,249.9L48.8,382.2z"/>
            <path stroke-width="4" stroke="#ffffff" id="shape3" fill="#e5d926" transform="translate(-0.03,78.36)" d="M3.9,0L114.4,43.9C116.8,44.6,118.1,46.8,118.5,48L118.5,332.6C118.5,334.9,116.5,336.1,114.3,336.1L4,281.6C.9,279.9,.5,279.1,0,277.5L0,3.8C0,1.6,1.7,0,3.9,0z"/>
            <path stroke-width="4" stroke="#ffffff" id="shape4" fill="#e5d926" transform="translate(106.34,29.67)" d="M0,90.4C8.4,93.9,9.4,93.8,15.5,99.1C18.9,102.1,20.5,110.9,20.5,110.9L205.8,8.1C205.8,8.1,206.8,4.1,205.2,2.7C203.8,1.6,192.2,0,192.2,0L0,90.4z"/>
            <path stroke-width="4" stroke="#ffffff" id="shape5" fill="#e5d926" transform="translate(105.26,119.25)" d="M-0,0C5.2,0,20.6,7.3,21.4,20C21.7,24.3,21.4,288.1,21.4,288.1C21.4,288.1,10.9,296.6,9.7,295.5C8.5,294,.2,291.1,.2,291.1L-0,0z"/>
            <path stroke-width="4" stroke="#ffffff" id="shape6" fill="#e5d926" transform="translate(0.47,80.48)" d="M70.5,24.2L35.3,294.6L.1,279.5L.1,1C.1,1,-1.1,-1.1,4.1,.6L70.5,24.2z"/>
            <g transform="translate(0.27,114.05)">
                <path stroke-width="4" stroke="#ffffff" id="shape7" fill="#e5d926" transform="translate(0.42,-0)" d="M0,0L0,6L64.5,36L64.5,29.7L0,0z"/>
                <path stroke-width="4" stroke="#ffffff" id="shape8" fill="#e5d926" transform="translate(0.42,40.64)" d="M0,0L0,6.7L64.5,36.4L64.5,29.1L0,0z"/>
                <path stroke-width="4" stroke="#ffffff" id="shape9" fill="#e5d926" transform="translate(-0,81.61)" d="M0,0L0,7L65,37.2L65,30.5L0,0z"/>
                <path stroke-width="4" stroke="#ffffff" id="shape10" fill="#e5d926" transform="translate(0.58,124.02)" d="M0,0L0,7L64,36.5L64,29.8L0,0z"/>
                <path stroke-width="4" stroke="#ffffff" id="shape11" fill="#e5d926" transform="translate(59.77,27.92)" d="M0,0L.1,5.9L58,31.4L58,25.8L0,0z"/>
                <path stroke-width="4" stroke="#ffffff" id="shape12" fill="#e5d926" transform="translate(59.77,67.59)" d="M0,0L0,7.4L58.4,33.6L58.4,27L0,0z"/>
                <path stroke-width="4" stroke="#ffffff" id="shape13" fill="#e5d926" transform="translate(59.43,109.65)" d="M0,0L58.7,26.6L58.7,32.9L0,7.4L0,0z"/>
                <path stroke-width="4" stroke="#ffffff" id="shape14" fill="#e5d926" transform="translate(59.43,151.01)" d="M0,0L58.7,27.7L58.7,34L0,7.4L0,0z"/>
                <path stroke-width="4" stroke="#ffffff" id="shape15" fill="#e5d926" transform="translate(62.88,29.32)" d="M0,0L43.8,19.5L48.8,28.5L.1,6.6L0,0z"/>
                <path stroke-width="4" stroke="#ffffff" id="shape16" fill="#e5d926" transform="translate(62.12,68.29)" d="M0,0L43.4,20.2L48.6,30.3L.3,8.1L0,0z"/>
                <path stroke-width="4" stroke="#ffffff" id="shape17" fill="#e5d926" transform="translate(62.68,110.91)" d="M0,0L43.8,19.6L48.8,29.4L.1,7.6L0,0z"/>
                <path stroke-width="4" stroke="#ffffff" id="shape18" fill="#e5d926" transform="translate(62.68,152.91)" d="M0,0L43.8,19.5L48.8,28.5L.1,6.6L0,0z"/>
                <path stroke-width="4" stroke="#ffffff" id="shape19" fill="#e5d926" transform="translate(62.68,152.91)" d="M0,0L50.6,23.6L50.6,29.8L6.9,10.4L0,0z"/>
                <path stroke-width="4" stroke="#ffffff" id="shape20" fill="#e5d926" transform="translate(63.5,110.74)" d="M0,0L50.6,23.6L50.6,29.8L6.9,10.4L0,0z"/>
                <path stroke-width="4" stroke="#ffffff" id="shape21" fill="#e5d926" transform="translate(63.68,69.53)" d="M0,0L50.6,23.6L50.6,29.8L6.9,10.4L0,0z"/>
                <path stroke-width="4" stroke="#ffffff" id="shape22" fill="#e5d926" transform="translate(63.68,28.73)" d="M0,0L50.6,23.6L50.6,29.8L6.9,10.4L0,0z"/>
            </g>
        </g>
        <g transform="translate(190.62,248.86)">
            <path stroke-width="4" stroke="#ffffff" id="shape23" fill="#e5d926" transform="translate(0,-0)" d="M0,15.6L29.8,0L149.4,55L117.8,73.8L0,15.6z"/>
            <path stroke-width="4" stroke="#ffffff" id="shape24" fill="#e5d926" transform="translate(117.78,55.02)" d="M0,18.8L0,136.1L31.6,118.7L31.6,0L0,18.8z"/>
            <path stroke-width="4" stroke="#ffffff" id="shape25" fill="#e5d926" transform="translate(0,15.66)" d="M117.8,58.2L0,0L0,112L117.8,175.5L117.8,58.2z"/>
            <path stroke-width="4" stroke="#ffffff" id="shape26" fill="#e5d926" transform="translate(0,15.65)" d="M0,0L0,19.6L117.5,81L117.8,58.2L0,0z"/>
            <path stroke-width="4" stroke="#ffffff" id="shape27" fill="#e5d926" transform="translate(0.01,15.65)" d="M0,0L0,19.6L34.5,37.6L34.5,17L0,0z"/>
            <path stroke-width="4" stroke="#ffffff" id="shape28" fill="#e5d926" transform="translate(94.79,62.79)" d="M0,0L0,22L22.7,33.9L23,10.4L0,0z"/>
            <path stroke-width="4" stroke="#ffffff" id="shape29" fill="#e5d926" transform="translate(0,54.9)" d="M0,0L0,24.4L117.5,87.3L117.8,64.7L0,0z"/>
            <path stroke-width="4" stroke="#ffffff" id="shape30" fill="#e5d926" transform="translate(0,79.29)" d="M0,0L0,22.9L117.5,84.3L117.5,62.9L0,0z"/>
            <path stroke-width="4" stroke="#ffffff" id="shape31" fill="#e5d926" transform="translate(0,35.28)" d="M0,0L0,19.6L117.8,84.3L117.5,61.4L0,0z"/>
            <path stroke-width="4" stroke="#ffffff" id="shape32" fill="#e5d926" transform="translate(17.24,44.54)" d="M0,0L0,19.7L62.6,54.2L62.6,32.7L0,0z"/>
            <path stroke-width="4" stroke="#ffffff" id="shape33" fill="#e5d926" transform="translate(0,54.9)" d="M22.7,12.5L22.7,36.6L0,24.4L0,0L22.7,12.5z"/>
            <path stroke-width="4" stroke="#ffffff" id="shape34" fill="#e5d926" transform="translate(55.45,85.09)" d="M0,0L0,24L62,57.1L62.3,34.5L0,0z"/>
            <path stroke-width="4" stroke="#ffffff" id="shape35" fill="#e5d926" transform="translate(34.76,97.83)" d="M0,0L0,22.3L47.1,47.5L47.1,25.5L0,0z"/>
            <path stroke-width="4" stroke="#ffffff" id="shape36" fill="#e5d926" transform="translate(0,102.19)" d="M20.1,10.4L20.1,36.5L0,25.5L0,0L20.1,10.4z"/>
            <path stroke-width="4" stroke="#ffffff" id="shape37" fill="#e5d926" transform="translate(79.86,144.8)" d="M0,0L0,25.5L37.9,46.3L37.6,18.8L0,0z"/>
        </g>
    </g>
</svg>
