<svg height="447" xmlns="http://www.w3.org/2000/svg" width="341" xmlns:xlink="http://www.w3.org/1999/xlink" viewBox="0 0 341 447.052">
    <defs/>
    <g transform="translate(3,3)">
        <g>
            <path stroke-width="3" stroke="#ffffff" id="shape1" fill="#67c23a" transform="translate(0.85,0)" d="M0,89.3L2.3,83.1L199,0L331.8,34.4L129.9,167.1L0,89.3z"/>
            <path stroke-width="3" stroke="#ffffff" id="shape2" fill="#67c23a" transform="translate(71.2,34.32)" d="M52.1,405.5L262.4,291L262.4,4.1L55.2,98.1L0,265.1L52.1,405.5z"/>
            <path stroke-width="3" stroke="#ffffff" id="shape3" fill="#67c23a" transform="translate(-0.04,83.13)" d="M4.2,0L122.1,46.6C124.7,47.3,126.1,49.7,126.5,50.9L126.5,352.8C126.5,355.2,124.4,356.6,122,356.6L4.3,298.7C1,297,.5,296.1,0,294.4L0,4.1C0,1.7,1.8,0,4.2,0z"/>
            <path stroke-width="3" stroke="#ffffff" id="shape4" fill="#67c23a" transform="translate(113.5,31.48)" d="M0,95.9C8.9,99.7,10,99.5,16.5,105.1C20.1,108.3,21.8,117.7,21.8,117.7L219.6,8.6C219.6,8.6,220.7,4.3,219,2.9C217.5,1.7,205.2,0,205.2,0L0,95.9z"/>
            <path stroke-width="3" stroke="#ffffff" id="shape5" fill="#67c23a" transform="translate(112.35,126.51)" d="M-0,0C5.5,0,22,7.7,22.9,21.2C23.2,25.8,22.9,305.6,22.9,305.6C22.9,305.6,11.7,314.7,10.4,313.4C9.1,311.9,.2,308.8,.2,308.8L-0,0z"/>
            <path stroke-width="3" stroke="#ffffff" id="shape6" fill="#67c23a" transform="translate(0.5,85.37)" d="M75.3,25.6L37.6,312.6L.1,296.5L.1,1.1C.1,1.1,-1.1,-1.1,4.4,.6L75.3,25.6z"/>
            <g transform="translate(0.28,120.98)">
                <path stroke-width="3" stroke="#ffffff" id="shape7" fill="#67c23a" transform="translate(0.45,-0)" d="M0,0L0,6.3L68.9,38.2L68.9,31.6L0,0z"/>
                <path stroke-width="3" stroke="#ffffff" id="shape8" fill="#67c23a" transform="translate(0.45,43.12)" d="M0,0L0,7.1L68.9,38.6L68.9,30.8L0,0z"/>
                <path stroke-width="3" stroke="#ffffff" id="shape9" fill="#67c23a" transform="translate(-0,86.58)" d="M0,0L0,7.4L69.3,39.4L69.3,32.3L0,0z"/>
                <path stroke-width="3" stroke="#ffffff" id="shape10" fill="#67c23a" transform="translate(0.62,131.57)" d="M0,0L0,7.4L68.3,38.7L68.3,31.6L0,0z"/>
                <path stroke-width="3" stroke="#ffffff" id="shape11" fill="#67c23a" transform="translate(63.8,29.62)" d="M0,0L.1,6.2L62,33.3L62,27.4L0,0z"/>
                <path stroke-width="3" stroke="#ffffff" id="shape12" fill="#67c23a" transform="translate(63.8,71.7)" d="M0,0L0,7.8L62.3,35.7L62.3,28.6L0,0z"/>
                <path stroke-width="3" stroke="#ffffff" id="shape13" fill="#67c23a" transform="translate(63.43,116.32)" d="M0,0L62.7,28.3L62.7,34.9L0,7.8L0,0z"/>
                <path stroke-width="3" stroke="#ffffff" id="shape14" fill="#67c23a" transform="translate(63.43,160.19)" d="M0,0L62.7,29.4L62.7,36.1L0,7.8L0,0z"/>
                <path stroke-width="3" stroke="#ffffff" id="shape15" fill="#67c23a" transform="translate(67.12,31.1)" d="M0,0L46.8,20.7L52.1,30.2L.1,7L0,0z"/>
                <path stroke-width="3" stroke="#ffffff" id="shape16" fill="#67c23a" transform="translate(66.31,72.45)" d="M0,0L46.3,21.4L51.9,32.1L.3,8.6L0,0z"/>
                <path stroke-width="3" stroke="#ffffff" id="shape17" fill="#67c23a" transform="translate(66.9,117.66)" d="M0,0L46.8,20.8L52.1,31.2L.1,8L0,0z"/>
                <path stroke-width="3" stroke="#ffffff" id="shape18" fill="#67c23a" transform="translate(66.9,162.21)" d="M0,0L46.8,20.7L52.1,30.2L.1,7L0,0z"/>
                <path stroke-width="3" stroke="#ffffff" id="shape19" fill="#67c23a" transform="translate(66.9,162.21)" d="M0,0L54,25.1L54,31.6L7.4,11.1L0,0z"/>
                <path stroke-width="3" stroke="#ffffff" id="shape20" fill="#67c23a" transform="translate(67.78,117.48)" d="M0,0L54,25.1L54,31.6L7.4,11.1L0,0z"/>
                <path stroke-width="3" stroke="#ffffff" id="shape21" fill="#67c23a" transform="translate(67.97,73.75)" d="M0,0L54,25.1L54,31.6L7.4,11.1L0,0z"/>
                <path stroke-width="3" stroke="#ffffff" id="shape22" fill="#67c23a" transform="translate(67.97,30.48)" d="M0,0L54,25.1L54,31.6L7.4,11.1L0,0z"/>
            </g>
        </g>
        <g transform="translate(166.81,273.99)">
            <path stroke-width="3.66667" stroke="#ffffff" id="shape23" fill="#67c23a" d="M0,80.9C0,36.2,35.8,0,79.9,0C124.1,0,159.9,36.2,159.9,80.9C159.9,125.5,124.1,161.7,79.9,161.7C35.8,161.7,0,125.5,0,80.9z"/>
            <path stroke-width="3.66667" stroke="#ffffff" id="shape24" fill="#67c23a" transform="translate(7.63,-0)" d="M19.2,20.4C11.4,29.1,11.1,33.5,11.1,33.5C11.1,33.5,7.3,40.4,9.8,41.9C12.2,43.3,13.1,41.1,16.1,41.1C19.2,41.1,20.5,44.1,23.8,43.9C27.1,43.7,29.9,42.2,33,41.9C36.1,41.7,38.8,42.2,40.3,40.7C41.7,39.2,40.9,38.2,39.8,37.9C38.8,37.6,34.9,40.1,33.4,39.9C32,39.7,30.5,39.1,30.5,39.1C30.5,39.1,27.3,38.2,27.9,37C28.5,35.8,30.5,35.8,30.5,35.8L36,35.4C36,35.4,36.9,31.7,38.1,31.3C39.3,31,41.4,31.4,42.8,33.8C44.2,36.1,43,36.2,45.4,37.4C47.7,38.7,49.3,38.8,50.1,39.1C50.8,39.3,50.9,39.8,50.9,40.3C50.9,40.8,47.7,42.7,47.5,44C47.3,45.2,50.1,48.4,50.1,48.4C50.1,48.4,54.1,51.7,56.9,50.5C59.7,49.2,60.8,53,61.1,51.3C61.4,49.9,60.7,47.2,60.7,47.2C60.7,47.2,60.6,44,56.4,43.5C54.6,43.3,56.2,41.7,54.7,41.5C53.3,41.3,55.6,39.5,55.6,39.5C55.6,39.5,59,36.5,58.6,35.8C58.1,35.2,55.2,35.8,55.2,35.8C55.2,35.8,54.5,36.1,52.6,35.4C50.8,34.7,52.6,32.6,52.6,32.6C52.6,32.6,51.8,30,50.5,30.5C49.1,31.1,47.9,30.9,47.9,30.9C47.9,30.9,47,30.7,45.8,29.7C44.6,28.8,47.2,27.1,50.1,27.3C52.9,27.4,61.6,31.9,62.4,33.8C63.2,35.7,61.6,36.6,61.6,36.6C61.6,36.6,61.8,39.7,63.3,39.9C64.7,40.1,67.5,36.6,67.5,36.6C67.5,36.6,68.9,35.8,70.5,35.8C72.1,35.8,77.3,38.3,77.3,38.3C77.3,38.3,80.3,38.9,81.2,39.9C82,40.8,81.5,40.8,80.3,41.9C79.2,43,75.2,42.3,75.2,42.3C75.2,42.3,74.5,42.1,73.9,43.1C73.3,44.2,74,46.3,75.2,47.2C76.4,48.1,79.8,47.5,80.7,47.6C81.7,47.7,81.8,48.6,81.2,49.6C80.3,51.9,75.6,55.6,75.6,56.6C75.6,57.5,76.3,56.7,76.9,57.8C77.5,58.9,77.5,60.6,78.2,61.4C78.9,62.3,79.9,64,79.9,65.5C79.9,67,78.8,69.5,78.6,71.6C78.4,73.7,80.2,75.3,80.3,76.4C80.4,77.7,80.8,80.1,79.9,81.4C78.9,82.6,77.8,79.7,76.5,78.9C75.2,78.2,73.8,78,71.4,78.1C68.9,78.2,65.4,81.5,64.5,82.6C63.7,83.7,62.9,86.5,62.8,89.1C62.8,91.7,66.7,94,66.7,94C66.7,94,67.5,94.9,69.7,95.2C71.9,95.5,75,90.7,76,90.7C77.1,90.7,76.9,93.6,76.9,93.6L78.6,94L84.6,92.4C84.6,92.4,87.6,95.4,89.3,96C91,96.6,93.3,96.7,94.8,95.6C96.3,94.5,98,88.9,99.5,87.9C101,86.8,104.5,87.4,107.2,86.7C109.8,86,112.8,82.4,114.4,81.4C116,80.4,115.7,81.7,117,81.8C118.3,81.9,123.7,79.9,125.5,79.3C127.3,78.8,129,80.5,130.2,80.6C131.4,80.6,132.7,79.7,132.7,79.7C132.7,79.7,140.2,75.6,142.1,75.3C144,74.9,145.1,77.7,145.1,77.7C145.1,77.7,145.1,94.3,145.1,96.4C145.1,98.6,144,103.7,143,107C141.9,110.3,118.2,144.5,116.1,144C114.1,143.5,121.4,125.6,118.7,122.9C115.9,120.1,103.1,119.2,99.1,116.8C95,114.3,101.1,105.9,99.1,104.2C97,102.4,89.3,101.7,89.3,101.7C89.3,101.7,76.7,98.4,74.3,98.9C72,99.3,68.4,103.2,66.7,103.7C65,104.3,57.1,104.5,55.2,103.7C53.2,103,49.2,95.3,47.5,94.4C45.8,93.5,38.1,89.9,37.3,91.5C36.4,93.2,44.8,100,44.5,100.9C44.3,101.8,39.9,99.4,38.1,98.5C36.3,97.5,33.4,88.6,31.7,87.1C30,85.5,26.3,84.9,25.3,82.6C24.3,80.3,25.3,74.5,24.1,73.2C22.8,72,15.7,63.8,16.4,62.3C17.1,60.7,20.9,62.7,21.9,61.9C22.9,61,23.7,59.1,22.8,58.6C21.8,58.1,19.1,58,17.2,57.4C15.4,56.8,10.6,54.5,9.6,54.5C8.6,54.6,3.5,56.5,2.8,55.3C2,54.2,8,52.7,9.3,50C10.7,47.3,10.8,45.8,10.2,45.1C9.6,44.5,0,45.8,0,45.8C0,45.8,5.2,32.9,19.2,20.4zM26.6,135.1C29.2,135.1,29.5,134.1,30,133.4C30.6,132.8,32.8,132.9,33.9,134.2C34.9,135.5,36.9,136,38.1,136.7C39.3,137.3,39.4,140.4,39.4,140.4L39.4,144L42,146C42,146,51.5,146.6,51.3,148.5C51.2,149.1,50.7,149.5,49.2,150.1C47.7,150.8,47.4,151.8,45.8,151.8C44.2,151.8,42.8,151.5,41.1,150.5C39.4,149.6,30.1,145.2,28.7,144.4C27.4,143.7,24.5,142,24.5,142C24.5,142,22.6,140.7,21.1,139.5C19.4,138.7,21.1,137.9,21.1,137.9C21.1,137.9,22.8,137.6,23.2,136.7C23.6,135.8,24,135,26.6,135.1zM42.4,25.2C44.5,26.1,44.2,24,45.8,23.6C47.4,23.2,57.3,25.7,57.3,25.7C57.3,25.7,65.3,28.2,67.5,28.9C69.7,29.6,71.7,30.4,72.8,28.5C73.8,26.6,68.4,21.6,68.4,21.6C68.4,21.6,64.5,15.8,63.3,15.1C62,14.4,59.5,13.5,59,15.5C56.7,16.9,54.1,14.5,49.9,15.2C44.3,16.1,44.1,17.1,44.1,17.1L42.4,20C42.4,20,40.3,24.3,42.4,25.2zM69.2,13C70.5,12.6,72.1,13.8,72.1,13.8C72.1,13.8,74.6,13.3,75.2,14.7C75.8,16,73.4,15.9,72.6,16.8C71.8,17.7,72.2,20.1,71.4,20.4C70.5,20.6,70.1,19.5,70.1,19.5L68.8,17.5C68.8,17.5,67.9,13.5,69.2,13zM143.2,43.4C143.2,43.4,140,43.5,137.8,43.5C135.7,43.6,134.9,41.1,134.9,41.1L132.3,37.9C132.3,37.9,130.1,33,128.9,34.2C127.7,35.4,125.5,34.2,125.5,34.2L122.9,29.7C122.9,29.7,122,23.9,119.5,23.2C117.1,22.6,115,20.7,113.6,19.1C112.1,17.6,106.5,18.4,104.2,17.5C101.9,16.7,99.6,17.9,99.1,15.7C98.6,13.5,100,13.2,99.9,11.4C99.8,9.7,98.9,6.9,97.8,6.9C96.7,6.9,96.2,7.8,96.1,10.2C96,12.6,92.1,16.1,90.1,16.3C88.1,16.5,86.3,14.7,86.3,14.7C86.3,14.7,79.5,9.6,79,8.2C78.5,6.7,75.6,7.2,73.8,5.6C72.1,4.1,71,5.7,68.4,5.7C65.8,5.8,65.5,5.4,64.1,4.9C62.8,4.4,63.5,5.4,60.3,5.3C57.1,5.3,50.7,2.9,50.7,2.9C50.7,2.9,79.1,-6.1,105.5,7.3C132,18.9,143.2,43.4,143.2,43.4zM76.9,85.8C76.4,85.2,77.8,84.2,77.8,84.2C77.8,84.2,79,82.9,80.3,82.2C81.6,81.5,82.3,81.4,83.3,81.4C84.3,81.4,89.7,82.6,89.7,82.6L93.5,81.8C93.5,81.8,95.6,79.7,96.5,79.7C97.4,79.8,96.9,81.4,96.9,81.4L98.6,81.4L100.8,78.1C100.8,78.1,101.3,76.2,102.5,74.9C103.6,73.6,104.8,73.2,106.3,73.2C107.8,73.2,109,73,109.3,73.6C109.6,74.2,106.3,77.3,106.3,77.3L104.2,78.9L99.9,81L91.4,86.7L88.4,86.7C88.4,86.7,87.1,86.4,86.3,85.4C85.4,84.5,87.7,83.8,86.5,83.7C85.3,83.6,84.1,84.2,84.1,84.2C84.1,84.2,78.9,88.5,76.9,85.8z"/>
            <path stroke-width="3.66667" stroke="#ffffff" id="shape25" fill="none" transform="translate(12.05,7.24)" d="M0,32C0,32,35.6,-3.9,99.9,.3"/>
            <path stroke-width="3.66667" stroke="#ffffff" id="shape26" fill="none" transform="translate(3.1,20.47)" d="M0,41.7C0,41.7,64,12.4,128.8,0"/>
            <path stroke-width="3.66667" stroke="#ffffff" id="shape27" fill="none" transform="translate(0.64,36.7)" d="M0,45.8C0,45.8,108.7,17.6,145.6,.1"/>
            <path stroke-width="3.66667" stroke="#ffffff" id="shape28" fill="none" transform="translate(5.01,56.87)" d="M0,50.7C0,50.7,80.4,42.6,150.5,0"/>
            <path stroke-width="3.66667" stroke="#ffffff" id="shape29" fill="none" transform="translate(14.94,78.3)" d="M0,49.3C0,49.3,81.8,46.4,143.9,0"/>
            <path stroke-width="3.66667" stroke="#ffffff" id="shape30" fill="none" transform="translate(33.12,96.86)" d="M0,48.5C0,48.5,76.4,46.8,124.7,0"/>
            <path stroke-width="3.66667" stroke="#ffffff" id="shape31" fill="none" transform="translate(53.63,121.89)" d="M0,35.5C0,35.5,56.8,35.3,94.6,0"/>
            <path stroke-width="3.66667" stroke="#ffffff" id="shape32" fill="none" transform="translate(86.43,1.13)" d="M0,0C90,50.2,50,136,50,136"/>
            <path stroke-width="3.66667" stroke="#ffffff" id="shape33" fill="none" transform="translate(70.95,1.59)" d="M52.8,146.3C52.8,146.3,70.3,60.2,0,0"/>
            <path stroke-width="3.66667" stroke="#ffffff" id="shape34" fill="none" transform="translate(58.25,4.23)" d="M0,0C29.9,32.3,51.7,150.1,51.7,150.1"/>
            <path stroke-width="3.66667" stroke="#ffffff" id="shape35" fill="none" transform="translate(49.64,6.7)" d="M46,152.8C46,152.8,-3.2,74.9,.2,0"/>
            <path stroke-width="3.66667" stroke="#ffffff" id="shape36" fill="none" transform="translate(33.53,12.31)" d="M5.8,0C-19.9,97.4,47.8,148.5,47.8,148.5"/>
            <path stroke-width="3.66667" stroke="#ffffff" id="shape37" fill="none" transform="translate(13.31,21.31)" d="M14.5,0C-33,91.4,51.2,137.7,51.2,137.7"/>
        </g>
    </g>
</svg>
