<svg height="424" xmlns="http://www.w3.org/2000/svg" width="318" xmlns:xlink="http://www.w3.org/1999/xlink" viewBox="0 0 318 424.09">
    <defs/>
    <g transform="translate(3,3)">
        <g transform="translate(0,-0)">
            <path stroke-width="3" stroke="#ffffff" id="shape1" fill="#67c23a" transform="translate(0.8,0)" d="M0,83.9L2.2,78.1L186.2,0L310.4,32.3L121.6,157L0,83.9z"/>
            <path stroke-width="3" stroke="#ffffff" id="shape2" fill="#67c23a" transform="translate(66.6,32.24)" d="M48.8,380.9L245.4,273.3L245.4,3.8L51.6,92.2L0,249L48.8,380.9z"/>
            <path stroke-width="3" stroke="#ffffff" id="shape3" fill="#67c23a" transform="translate(-0.03,78.09)" d="M3.9,0L114.2,43.8C116.6,44.4,117.9,46.7,118.3,47.8L118.3,331.4C118.3,333.7,116.3,335,114.1,335L4,280.6C.9,278.9,.5,278.1,0,276.5L0,3.8C0,1.6,1.7,0,3.9,0z"/>
            <path stroke-width="3" stroke="#ffffff" id="shape4" fill="#67c23a" transform="translate(106.17,29.57)" d="M0,90.1C8.4,93.6,9.4,93.5,15.5,98.8C18.8,101.7,20.4,110.5,20.4,110.5L205.4,8.1C205.4,8.1,206.5,4.1,204.9,2.7C203.5,1.6,191.9,0,191.9,0L0,90.1z"/>
            <path stroke-width="3" stroke="#ffffff" id="shape5" fill="#67c23a" transform="translate(105.09,118.83)" d="M-0,0C5.2,0,20.6,7.3,21.4,19.9C21.7,24.2,21.4,287.1,21.4,287.1C21.4,287.1,10.9,295.6,9.7,294.4C8.5,293,.2,290.1,.2,290.1L-0,0z"/>
            <path stroke-width="3" stroke="#ffffff" id="shape6" fill="#67c23a" transform="translate(0.47,80.19)" d="M70.4,24.1L35.2,293.6L.1,278.5L.1,1C.1,1,-1.1,-1.1,4.1,.6L70.4,24.1z"/>
            <g transform="translate(0.27,113.64)">
                <path stroke-width="3" stroke="#ffffff" id="shape7" fill="#67c23a" transform="translate(0.42,-0)" d="M0,0L0,5.9L64.4,35.9L64.4,29.6L0,0z"/>
                <path stroke-width="3" stroke="#ffffff" id="shape8" fill="#67c23a" transform="translate(0.42,40.5)" d="M0,0L0,6.6L64.4,36.3L64.4,28.9L0,0z"/>
                <path stroke-width="3" stroke="#ffffff" id="shape9" fill="#67c23a" transform="translate(-0,81.32)" d="M0,0L0,7L64.9,37L64.9,30.4L0,0z"/>
                <path stroke-width="3" stroke="#ffffff" id="shape10" fill="#67c23a" transform="translate(0.58,123.58)" d="M0,0L0,7L63.9,36.3L63.9,29.7L0,0z"/>
                <path stroke-width="3" stroke="#ffffff" id="shape11" fill="#67c23a" transform="translate(59.68,27.82)" d="M0,0L.1,5.9L58,31.3L58,25.7L0,0z"/>
                <path stroke-width="3" stroke="#ffffff" id="shape12" fill="#67c23a" transform="translate(59.68,67.36)" d="M0,0L0,7.3L58.3,33.5L58.3,26.9L0,0z"/>
                <path stroke-width="3" stroke="#ffffff" id="shape13" fill="#67c23a" transform="translate(59.33,109.27)" d="M0,0L58.6,26.5L58.6,32.8L0,7.3L0,0z"/>
                <path stroke-width="3" stroke="#ffffff" id="shape14" fill="#67c23a" transform="translate(59.33,150.48)" d="M0,0L58.6,27.6L58.6,33.9L0,7.3L0,0z"/>
                <path stroke-width="3" stroke="#ffffff" id="shape15" fill="#67c23a" transform="translate(62.78,29.22)" d="M0,0L43.7,19.4L48.7,28.4L.1,6.6L0,0z"/>
                <path stroke-width="3" stroke="#ffffff" id="shape16" fill="#67c23a" transform="translate(62.02,68.05)" d="M0,0L43.3,20.1L48.6,30.2L.3,8.1L0,0z"/>
                <path stroke-width="3" stroke="#ffffff" id="shape17" fill="#67c23a" transform="translate(62.58,110.52)" d="M0,0L43.7,19.6L48.7,29.3L.1,7.5L0,0z"/>
                <path stroke-width="3" stroke="#ffffff" id="shape18" fill="#67c23a" transform="translate(62.58,152.37)" d="M0,0L43.7,19.4L48.7,28.4L.1,6.6L0,0z"/>
                <path stroke-width="3" stroke="#ffffff" id="shape19" fill="#67c23a" transform="translate(62.58,152.37)" d="M0,0L50.5,23.5L50.5,29.7L6.9,10.4L0,0z"/>
                <path stroke-width="3" stroke="#ffffff" id="shape20" fill="#67c23a" transform="translate(63.4,110.35)" d="M0,0L50.5,23.5L50.5,29.7L6.9,10.4L0,0z"/>
                <path stroke-width="3" stroke="#ffffff" id="shape21" fill="#67c23a" transform="translate(63.58,69.28)" d="M0,0L50.5,23.5L50.5,29.7L6.9,10.4L0,0z"/>
                <path stroke-width="3" stroke="#ffffff" id="shape22" fill="#67c23a" transform="translate(63.58,28.63)" d="M0,0L50.5,23.5L50.5,29.7L6.9,10.4L0,0z"/>
            </g>
        </g>
        <g transform="translate(177.62,196.68)">
            <path stroke-width="3" stroke="#ffffff" id="shape23" fill="#67c23a" transform="translate(0,0.21)" d="M29.5,.7C54.3,.7,69.8,0,79,0C101.2,1.5,106.9,11.6,107.4,32.5C107.6,45.1,107.6,176.5,107.6,186.4C107.6,196.2,106.3,221.4,60.9,221C57.6,221.2,79.8,221.2,44.7,220.9C9.5,220.5,.7,202.2,.1,183.5C.1,177.4,.7,55.2,.1,37C.1,18.8,4.7,.7,29.5,.7z"/>
            <path stroke-width="3" stroke="#ffffff" id="shape24" fill="#67c23a" transform="translate(0,0.21)" d="M28.6,.2C53.4,0,69.8,0,79,0C101.2,1.5,106.9,11.6,107.4,32.5C107.6,45.1,107.6,176.6,107.6,186.4C107.6,196.3,106.3,221.5,60.9,221.2C57.6,221.2,79.8,221.2,44.7,221.2C9.5,220.5,.7,202.3,.1,183.6C.1,177.4,.7,55.2,.1,37C.1,18.8,5.4,.4,28.6,.2z"/>
            <path stroke-width="3" stroke="#ffffff" id="shape25" fill="#67c23a" transform="translate(1.62,4.89)" d="M12,0C12,0,2.6,8.3,2,19.8C1.4,31.2,1.8,170.9,1.8,179.8C1.8,188.6,3.8,194.7,9,202.6C12.4,207.8,20.7,210.1,20.7,210.1C20.7,210.1,2,209.4,.7,182.8C-0.7,154.2,.3,35.8,.3,20.6C.3,5.5,12,-0.6,12,0z"/>
            <path stroke-width="3" stroke="#ffffff" id="shape26" fill="#67c23a" transform="matrix(-1,0,0,1,106.5,4.9)" d="M12.8,0C12.8,0,2.8,8.3,2.2,19.8C1.5,31.2,2,170.9,2,179.8C2,188.6,4.1,194.7,9.6,202.6C13.2,207.8,22,210.1,22,210.1C22,210.1,2.2,209.4,.8,182.8C-0.7,154.2,.4,35.8,.4,20.6C.4,5.5,12.8,-0.6,12.8,0z"/>
            <path stroke-width="3" stroke="#ffffff" id="shape27" fill="#67c23a" transform="translate(3.93,4.64)" d="M27.2,.6C50.8,.6,65.7,0,74.5,0C95.7,1.5,101.1,8.9,101.6,29.5C101.7,41.9,100.6,167.5,100.7,177.2C100.6,187,105.2,213.2,56.5,212.7C53.3,212.9,50.5,212.9,38.6,212.9C5.1,212.5,.6,197.8,0,179.3C0,173.2,0,52,.2,34C.5,11.9,3.5,.6,27.2,.6z"/>
            <path stroke-width="3" stroke="#ffffff" id="shape28" fill="#67c23a" transform="translate(5.66,6.85)" d="M25.4,0C25.4,0,72.4,0,72.4,0C92.9,0,97.8,10.4,97.8,31.2C97.8,28.7,97.8,174.6,97.8,174.6C97.8,187.1,92.9,207.9,66.5,207.9C66.5,207.9,31.3,207.9,31.3,207.9C4.9,207.9,0,187.1,0,174.6C0,174.6,0,31.2,0,31.2C0,10.4,4.9,0,25.4,0z"/>
            <path stroke-width="3" stroke="#ffffff" id="shape29" fill="#67c23a" transform="translate(34.19,6.69)" d="M0,0L38.4,0L33.8,5.2L4.6,5.2L0,0z"/>
            <path stroke-width="3" stroke="#ffffff" id="shape30" fill="#67c23a" transform="translate(22.26,17.45)" d="M0,2.5C0,1.1,1.1,0,2.5,0C3.9,0,5,1.1,5,2.5C5,3.9,3.9,5,2.5,5C1.1,5,0,3.9,0,2.5z"/>
            <path stroke-width="3" stroke="#ffffff" id="shape31" fill="#67c23a" transform="translate(31.94,17.45)" d="M0,2.5C0,1.1,1.1,0,2.5,0C3.9,0,5,1.1,5,2.5C5,3.9,3.9,5,2.5,5C1.1,5,0,3.9,0,2.5z"/>
            <path stroke-width="3" stroke="#ffffff" id="shape32" fill="#67c23a" transform="translate(12.75,36.97)" d="M0,0L83.2,0L83.2,137.3L0,137.3L0,0z"/>
            <path stroke-width="3" stroke="#ffffff" id="shape33" fill="#67c23a" transform="translate(39.92,185.39)" d="M13.8,0C25,0,28.7,2.6,28.9,7C29.1,11.5,26.4,22.5,14.9,22.5C3.7,22.5,-0.8,13.1,0,6.5C.7,.9,14,0,13.8,0z"/>
            <path stroke-width="3" stroke="#ffffff" id="shape34" fill="#67c23a" transform="translate(40.62,186.4)" d="M12.9,0C22.5,.1,27.4,1.7,27.6,5.9C27.8,10.1,25.3,20.4,14.5,20.4C4.1,20.4,-0.7,11.8,0,5.7C.7,.4,13.1,0,12.9,0z"/>
            <path stroke-width="3" stroke="#ffffff" id="shape35" fill="#67c23a" transform="translate(44.41,189.82)" d="M10.2,0C15.6,.1,19.5,1.9,19.6,4.3C19.7,6.6,15.8,13.6,9.7,13.6C3.9,13.6,-1.4,6.9,.3,4C3,-0.5,10.3,0,10.2,0z"/>
            <path stroke-width="3" stroke="#ffffff" id="shape36" fill="#67c23a" transform="translate(40.85,192.86)" d="M0,-0C0,-0,-0.5,6.8,7.2,11.5C14.9,16.3,21.5,11.4,23.5,9C25.5,6.6,26.9,.3,26.9,.3L24.1,.9C24.1,.9,23.8,5,19.2,8.5C14.7,12.1,8.5,10.8,5.3,6.9C2.2,3,2.5,.4,2.5,.4L0,-0z"/>
            <path stroke-width="3" stroke="#ffffff" id="shape37" fill="#67c23a" transform="translate(12.75,37.34)" d="M.7,0L58,0L24.4,135.9L0,135.9L.7,0z"/>
            <path stroke-width="3" stroke="#ffffff" id="shape38" fill="#67c23a" transform="translate(35.3,7.06)" d="M0,0L36.2,0L32.6,4.4L3.6,4.4L0,0z"/>
            <path stroke-width="3" stroke="#ffffff" id="shape39" fill="#67c23a" transform="translate(21.79,213.54)" d="M0,1.3C0,1.3,15.4,5.7,33.3,5.2C51.2,4.6,69.3,-0,69.3,-0C69.3,-0,53.5,7.1,34.6,7.5C15.7,8,-0.5,1.3,0,1.3z"/>
            <path stroke-width="3" stroke="#ffffff" id="shape40" fill="#67c23a" transform="translate(35.67,7.06)" d="M0,0L35.5,0L31.9,4.4L3.5,4.4L0,0z"/>
            <path stroke-width="3" stroke="#ffffff" id="shape41" fill="none" transform="translate(18.19,188.23)" d="M0,5.2L0,0L8.9,0L8.9,5.2M.9,1.9L7.9,1.9M.9,3.8L7.9,3.8"/>
            <path stroke-width="3" stroke="#ffffff" id="shape42" fill="none" transform="translate(82.36,188.7)" d="M0,0C0,0,6.3,0,6.3,0C8.9,0,8.9,5.2,6.3,5.2C6.3,5.2,0,5.2,0,5.2"/>
            <path stroke-width="3" stroke="#ffffff" id="shape43" fill="#67c23a" transform="translate(82.06,187.23)" d="M3,0L0,1.3L3,3L3,0z"/>
        </g>
    </g>
</svg>
