<svg xmlns="http://www.w3.org/2000/svg" width="334" xmlns:xlink="http://www.w3.org/1999/xlink" height="421" viewBox="0 0 334 421">
    <defs>
        <clipPath id="clip1">
            <path d="M0,77.1L2,71.8L172.9,0L288.3,29.7L112.9,144.4L0,77.1z"/>
        </clipPath>
        <linearGradient id="lg1" y1="0%" x1="0%" x2="100%" y2="0%">
            <stop offset="0" stop-color="#ff7979"/>
            <stop offset="0.88" stop-color="#ff7979"/>
            <stop offset="1" stop-color="#f35555"/>
        </linearGradient>
        <linearGradient id="lg2" y1="0%" x1="0%" x2="0%" y2="100%">
            <stop offset="0" stop-color="#ff7979"/>
            <stop offset="0.88" stop-color="#ff7979"/>
            <stop offset="1" stop-color="#f35555"/>
        </linearGradient>
        <clipPath id="clip2">
            <path d="M45.3,350.4L227.9,251.5L227.9,3.5L47.9,84.8L0,229.1L45.3,350.4z"/>
        </clipPath>
        <linearGradient id="lg3" y1="0%" x1="0%" x2="100%" y2="0%">
            <stop offset="0" stop-color="#ff7979"/>
            <stop offset="0.88" stop-color="#ff7979"/>
            <stop offset="1" stop-color="#f35555"/>
        </linearGradient>
        <linearGradient id="lg4" y1="0%" x1="0%" x2="0%" y2="100%">
            <stop offset="0" stop-color="#ff7979"/>
            <stop offset="0.88" stop-color="#ff7979"/>
            <stop offset="1" stop-color="#f35555"/>
        </linearGradient>
        <clipPath id="clip3">
            <path d="M3.6,0L106.1,40.3C108.3,40.9,109.5,42.9,109.9,44L109.9,304.9C109.9,307,108.1,308.2,106,308.2L3.7,258.2C.9,256.6,.4,255.8,0,254.4L0,3.5C0,1.5,1.6,0,3.6,0z"/>
        </clipPath>
        <linearGradient id="lg5" y1="0%" x1="0%" x2="100%" y2="0%">
            <stop offset="0" stop-color="#ff7979"/>
            <stop offset="0.88" stop-color="#ff7979"/>
            <stop offset="1" stop-color="#f35555"/>
        </linearGradient>
        <linearGradient id="lg6" y1="0%" x1="0%" x2="0%" y2="100%">
            <stop offset="0" stop-color="#ff7979"/>
            <stop offset="0.88" stop-color="#ff7979"/>
            <stop offset="1" stop-color="#f35555"/>
        </linearGradient>
        <clipPath id="clip4">
            <path d="M0,82.9C7.8,86.1,8.7,86,14.4,90.9C17.5,93.6,19,101.7,19,101.7L190.8,7.4C190.8,7.4,191.8,3.7,190.3,2.5C189,1.5,178.3,0,178.3,0L0,82.9z"/>
        </clipPath>
        <linearGradient id="lg7" y1="0%" x1="0%" x2="100%" y2="0%">
            <stop offset="0" stop-color="#ff7979"/>
            <stop offset="0.88" stop-color="#ff7979"/>
            <stop offset="1" stop-color="#f35555"/>
        </linearGradient>
        <linearGradient id="lg8" y1="0%" x1="0%" x2="0%" y2="100%">
            <stop offset="0" stop-color="#ff7979"/>
            <stop offset="0.88" stop-color="#ff7979"/>
            <stop offset="1" stop-color="#f35555"/>
        </linearGradient>
        <clipPath id="clip5">
            <path d="M-0,0C4.8,0,19.1,6.7,19.9,18.3C20.1,22.3,19.9,264.1,19.9,264.1C19.9,264.1,10.1,271.9,9,270.9C7.9,269.5,.2,266.9,.2,266.9L-0,0z"/>
        </clipPath>
        <linearGradient id="lg9" y1="0%" x1="0%" x2="100%" y2="0%">
            <stop offset="0" stop-color="#ff7979"/>
            <stop offset="0.88" stop-color="#ff7979"/>
            <stop offset="1" stop-color="#f35555"/>
        </linearGradient>
        <linearGradient id="lg10" y1="0%" x1="0%" x2="0%" y2="100%">
            <stop offset="0" stop-color="#ff7979"/>
            <stop offset="0.88" stop-color="#ff7979"/>
            <stop offset="1" stop-color="#f35555"/>
        </linearGradient>
        <clipPath id="clip6">
            <path d="M65.4,22.1L32.7,270.1L.1,256.2L.1,.9C.1,.9,-1,-1,3.8,.5L65.4,22.1z"/>
        </clipPath>
        <linearGradient id="lg11" y1="0%" x1="0%" x2="100%" y2="0%">
            <stop offset="0" stop-color="#ff7979"/>
            <stop offset="0.88" stop-color="#ff7979"/>
            <stop offset="1" stop-color="#f35555"/>
        </linearGradient>
        <linearGradient id="lg12" y1="0%" x1="0%" x2="0%" y2="100%">
            <stop offset="0" stop-color="#ff7979"/>
            <stop offset="0.88" stop-color="#ff7979"/>
            <stop offset="1" stop-color="#f35555"/>
        </linearGradient>
        <clipPath id="clip7">
            <path d="M0,0L0,5.5L59.9,33L59.9,27.3L0,0z"/>
        </clipPath>
        <linearGradient id="lg13" y1="0%" x1="0%" x2="100%" y2="0%">
            <stop offset="0" stop-color="#ff7979"/>
            <stop offset="0.88" stop-color="#ff7979"/>
            <stop offset="1" stop-color="#f35555"/>
        </linearGradient>
        <linearGradient id="lg14" y1="0%" x1="0%" x2="0%" y2="100%">
            <stop offset="0" stop-color="#ff7979"/>
            <stop offset="0.88" stop-color="#ff7979"/>
            <stop offset="1" stop-color="#f35555"/>
        </linearGradient>
        <clipPath id="clip8">
            <path d="M0,0L0,6.1L59.9,33.4L59.9,26.6L0,0z"/>
        </clipPath>
        <linearGradient id="lg15" y1="0%" x1="0%" x2="100%" y2="0%">
            <stop offset="0" stop-color="#ff7979"/>
            <stop offset="0.88" stop-color="#ff7979"/>
            <stop offset="1" stop-color="#f35555"/>
        </linearGradient>
        <linearGradient id="lg16" y1="0%" x1="0%" x2="0%" y2="100%">
            <stop offset="0" stop-color="#ff7979"/>
            <stop offset="0.88" stop-color="#ff7979"/>
            <stop offset="1" stop-color="#f35555"/>
        </linearGradient>
        <clipPath id="clip9">
            <path d="M0,0L0,6.4L60.2,34.1L60.2,28L0,0z"/>
        </clipPath>
        <linearGradient id="lg17" y1="0%" x1="0%" x2="100%" y2="0%">
            <stop offset="0" stop-color="#ff7979"/>
            <stop offset="0.88" stop-color="#ff7979"/>
            <stop offset="1" stop-color="#f35555"/>
        </linearGradient>
        <linearGradient id="lg18" y1="0%" x1="0%" x2="0%" y2="100%">
            <stop offset="0" stop-color="#ff7979"/>
            <stop offset="0.88" stop-color="#ff7979"/>
            <stop offset="1" stop-color="#f35555"/>
        </linearGradient>
        <clipPath id="clip10">
            <path d="M0,0L0,6.4L59.4,33.4L59.4,27.3L0,0z"/>
        </clipPath>
        <linearGradient id="lg19" y1="0%" x1="0%" x2="100%" y2="0%">
            <stop offset="0" stop-color="#ff7979"/>
            <stop offset="0.88" stop-color="#ff7979"/>
            <stop offset="1" stop-color="#f35555"/>
        </linearGradient>
        <linearGradient id="lg20" y1="0%" x1="0%" x2="0%" y2="100%">
            <stop offset="0" stop-color="#ff7979"/>
            <stop offset="0.88" stop-color="#ff7979"/>
            <stop offset="1" stop-color="#f35555"/>
        </linearGradient>
        <clipPath id="clip11">
            <path d="M0,0L.1,5.4L53.8,28.8L53.8,23.6L0,0z"/>
        </clipPath>
        <linearGradient id="lg21" y1="0%" x1="0%" x2="100%" y2="0%">
            <stop offset="0" stop-color="#ff7979"/>
            <stop offset="0.88" stop-color="#ff7979"/>
            <stop offset="1" stop-color="#f35555"/>
        </linearGradient>
        <linearGradient id="lg22" y1="0%" x1="0%" x2="0%" y2="100%">
            <stop offset="0" stop-color="#ff7979"/>
            <stop offset="0.88" stop-color="#ff7979"/>
            <stop offset="1" stop-color="#f35555"/>
        </linearGradient>
        <clipPath id="clip12">
            <path d="M0,0L0,6.7L54.2,30.8L54.2,24.7L0,0z"/>
        </clipPath>
        <linearGradient id="lg23" y1="0%" x1="0%" x2="100%" y2="0%">
            <stop offset="0" stop-color="#ff7979"/>
            <stop offset="0.88" stop-color="#ff7979"/>
            <stop offset="1" stop-color="#f35555"/>
        </linearGradient>
        <linearGradient id="lg24" y1="0%" x1="0%" x2="0%" y2="100%">
            <stop offset="0" stop-color="#ff7979"/>
            <stop offset="0.88" stop-color="#ff7979"/>
            <stop offset="1" stop-color="#f35555"/>
        </linearGradient>
        <clipPath id="clip13">
            <path d="M0,0L54.5,24.4L54.5,30.2L0,6.7L0,0z"/>
        </clipPath>
        <linearGradient id="lg25" y1="0%" x1="0%" x2="100%" y2="0%">
            <stop offset="0" stop-color="#ff7979"/>
            <stop offset="0.88" stop-color="#ff7979"/>
            <stop offset="1" stop-color="#f35555"/>
        </linearGradient>
        <linearGradient id="lg26" y1="0%" x1="0%" x2="0%" y2="100%">
            <stop offset="0" stop-color="#ff7979"/>
            <stop offset="0.88" stop-color="#ff7979"/>
            <stop offset="1" stop-color="#f35555"/>
        </linearGradient>
        <clipPath id="clip14">
            <path d="M0,0L54.5,25.4L54.5,31.2L0,6.7L0,0z"/>
        </clipPath>
        <linearGradient id="lg27" y1="0%" x1="0%" x2="100%" y2="0%">
            <stop offset="0" stop-color="#ff7979"/>
            <stop offset="0.88" stop-color="#ff7979"/>
            <stop offset="1" stop-color="#f35555"/>
        </linearGradient>
        <linearGradient id="lg28" y1="0%" x1="0%" x2="0%" y2="100%">
            <stop offset="0" stop-color="#ff7979"/>
            <stop offset="0.88" stop-color="#ff7979"/>
            <stop offset="1" stop-color="#f35555"/>
        </linearGradient>
        <clipPath id="clip15">
            <path d="M0,0L40.6,17.9L45.2,26.1L.1,6L0,0z"/>
        </clipPath>
        <linearGradient id="lg29" y1="0%" x1="0%" x2="100%" y2="0%">
            <stop offset="0" stop-color="#ff7979"/>
            <stop offset="0.88" stop-color="#ff7979"/>
            <stop offset="1" stop-color="#f35555"/>
        </linearGradient>
        <linearGradient id="lg30" y1="0%" x1="0%" x2="0%" y2="100%">
            <stop offset="0" stop-color="#ff7979"/>
            <stop offset="0.88" stop-color="#ff7979"/>
            <stop offset="1" stop-color="#f35555"/>
        </linearGradient>
        <clipPath id="clip16">
            <path d="M0,0L40.2,18.5L45.1,27.8L.3,7.5L0,0z"/>
        </clipPath>
        <linearGradient id="lg31" y1="0%" x1="0%" x2="100%" y2="0%">
            <stop offset="0" stop-color="#ff7979"/>
            <stop offset="0.88" stop-color="#ff7979"/>
            <stop offset="1" stop-color="#f35555"/>
        </linearGradient>
        <linearGradient id="lg32" y1="0%" x1="0%" x2="0%" y2="100%">
            <stop offset="0" stop-color="#ff7979"/>
            <stop offset="0.88" stop-color="#ff7979"/>
            <stop offset="1" stop-color="#f35555"/>
        </linearGradient>
        <clipPath id="clip17">
            <path d="M0,0L40.6,18L45.2,27L.1,6.9L0,0z"/>
        </clipPath>
        <linearGradient id="lg33" y1="0%" x1="0%" x2="100%" y2="0%">
            <stop offset="0" stop-color="#ff7979"/>
            <stop offset="0.88" stop-color="#ff7979"/>
            <stop offset="1" stop-color="#f35555"/>
        </linearGradient>
        <linearGradient id="lg34" y1="0%" x1="0%" x2="0%" y2="100%">
            <stop offset="0" stop-color="#ff7979"/>
            <stop offset="0.88" stop-color="#ff7979"/>
            <stop offset="1" stop-color="#f35555"/>
        </linearGradient>
        <clipPath id="clip18">
            <path d="M0,0L40.6,17.9L45.2,26.1L.1,6L0,0z"/>
        </clipPath>
        <linearGradient id="lg35" y1="0%" x1="0%" x2="100%" y2="0%">
            <stop offset="0" stop-color="#ff7979"/>
            <stop offset="0.88" stop-color="#ff7979"/>
            <stop offset="1" stop-color="#f35555"/>
        </linearGradient>
        <linearGradient id="lg36" y1="0%" x1="0%" x2="0%" y2="100%">
            <stop offset="0" stop-color="#ff7979"/>
            <stop offset="0.88" stop-color="#ff7979"/>
            <stop offset="1" stop-color="#f35555"/>
        </linearGradient>
        <clipPath id="clip19">
            <path d="M0,0L46.9,21.6L46.9,27.3L6.4,9.6L0,0z"/>
        </clipPath>
        <linearGradient id="lg37" y1="0%" x1="0%" x2="100%" y2="0%">
            <stop offset="0" stop-color="#ff7979"/>
            <stop offset="0.88" stop-color="#ff7979"/>
            <stop offset="1" stop-color="#f35555"/>
        </linearGradient>
        <linearGradient id="lg38" y1="0%" x1="0%" x2="0%" y2="100%">
            <stop offset="0" stop-color="#ff7979"/>
            <stop offset="0.88" stop-color="#ff7979"/>
            <stop offset="1" stop-color="#f35555"/>
        </linearGradient>
        <clipPath id="clip20">
            <path d="M0,0L46.9,21.6L46.9,27.3L6.4,9.6L0,0z"/>
        </clipPath>
        <linearGradient id="lg39" y1="0%" x1="0%" x2="100%" y2="0%">
            <stop offset="0" stop-color="#ff7979"/>
            <stop offset="0.88" stop-color="#ff7979"/>
            <stop offset="1" stop-color="#f35555"/>
        </linearGradient>
        <linearGradient id="lg40" y1="0%" x1="0%" x2="0%" y2="100%">
            <stop offset="0" stop-color="#ff7979"/>
            <stop offset="0.88" stop-color="#ff7979"/>
            <stop offset="1" stop-color="#f35555"/>
        </linearGradient>
        <clipPath id="clip21">
            <path d="M0,0L46.9,21.6L46.9,27.3L6.4,9.6L0,0z"/>
        </clipPath>
        <linearGradient id="lg41" y1="0%" x1="0%" x2="100%" y2="0%">
            <stop offset="0" stop-color="#ff7979"/>
            <stop offset="0.88" stop-color="#ff7979"/>
            <stop offset="1" stop-color="#f35555"/>
        </linearGradient>
        <linearGradient id="lg42" y1="0%" x1="0%" x2="0%" y2="100%">
            <stop offset="0" stop-color="#ff7979"/>
            <stop offset="0.88" stop-color="#ff7979"/>
            <stop offset="1" stop-color="#f35555"/>
        </linearGradient>
        <clipPath id="clip22">
            <path d="M0,0L46.9,21.6L46.9,27.3L6.4,9.6L0,0z"/>
        </clipPath>
        <linearGradient id="lg43" y1="0%" x1="0%" x2="100%" y2="0%">
            <stop offset="0" stop-color="#ff7979"/>
            <stop offset="0.88" stop-color="#ff7979"/>
            <stop offset="1" stop-color="#f35555"/>
        </linearGradient>
        <linearGradient id="lg44" y1="0%" x1="0%" x2="0%" y2="100%">
            <stop offset="0" stop-color="#ff7979"/>
            <stop offset="0.88" stop-color="#ff7979"/>
            <stop offset="1" stop-color="#f35555"/>
        </linearGradient>
        <clipPath id="clip23">
            <path d="M-0.2,14.3C3.2,1.3,25.3,-3.2,48.2,2.8C71,8.8,86.8,24.2,83.4,37.2C80,50.2,58.6,55.7,35.8,49.7C12.9,43.7,-1.5,28.1,-0.2,14.3z"/>
        </clipPath>
        <linearGradient id="lg45" y1="0%" x1="0%" x2="100%" y2="0%">
            <stop offset="0" stop-color="#ff7979"/>
            <stop offset="0.88" stop-color="#ff7979"/>
            <stop offset="1" stop-color="#f35555"/>
        </linearGradient>
        <linearGradient id="lg46" y1="0%" x1="0%" x2="0%" y2="100%">
            <stop offset="0" stop-color="#ff7979"/>
            <stop offset="0.88" stop-color="#ff7979"/>
            <stop offset="1" stop-color="#f35555"/>
        </linearGradient>
        <clipPath id="clip24">
            <path d="M.4,14.9C3.9,2,25.2,-3.6,48.1,2.4C70.9,8.5,86.7,23.9,83.3,36.8C79.9,49.8,58.5,55.4,35.7,49.3C12.8,43.3,-3,27.9,.4,14.9z"/>
        </clipPath>
        <linearGradient id="lg47" y1="0%" x1="0%" x2="100%" y2="0%">
            <stop offset="0" stop-color="#ff7979"/>
            <stop offset="0.88" stop-color="#ff7979"/>
            <stop offset="1" stop-color="#f35555"/>
        </linearGradient>
        <linearGradient id="lg48" y1="0%" x1="0%" x2="0%" y2="100%">
            <stop offset="0" stop-color="#ff7979"/>
            <stop offset="0.88" stop-color="#ff7979"/>
            <stop offset="1" stop-color="#f35555"/>
        </linearGradient>
        <clipPath id="clip25">
            <path d="M.4,14.9C3.9,2,25.2,-3.6,48.1,2.4C70.9,8.5,86.7,23.9,83.3,36.8C79.9,49.8,58.5,55.4,35.7,49.3C12.8,43.3,-3,27.9,.4,14.9z"/>
        </clipPath>
        <linearGradient id="lg49" y1="0%" x1="0%" x2="100%" y2="0%">
            <stop offset="0" stop-color="#ff7979"/>
            <stop offset="0.88" stop-color="#ff7979"/>
            <stop offset="1" stop-color="#f35555"/>
        </linearGradient>
        <linearGradient id="lg50" y1="0%" x1="0%" x2="0%" y2="100%">
            <stop offset="0" stop-color="#ff7979"/>
            <stop offset="0.88" stop-color="#ff7979"/>
            <stop offset="1" stop-color="#f35555"/>
        </linearGradient>
        <clipPath id="clip26">
            <path d="M.4,14.9C3.9,2,25.2,-3.6,48.1,2.4C70.9,8.5,86.7,23.9,83.3,36.8C79.9,49.8,58.5,55.4,35.7,49.3C12.8,43.3,-3,27.9,.4,14.9z"/>
        </clipPath>
        <linearGradient id="lg51" y1="0%" x1="0%" x2="100%" y2="0%">
            <stop offset="0" stop-color="#ff7979"/>
            <stop offset="0.88" stop-color="#ff7979"/>
            <stop offset="1" stop-color="#f35555"/>
        </linearGradient>
        <linearGradient id="lg52" y1="0%" x1="0%" x2="0%" y2="100%">
            <stop offset="0" stop-color="#ff7979"/>
            <stop offset="0.88" stop-color="#ff7979"/>
            <stop offset="1" stop-color="#f35555"/>
        </linearGradient>
        <clipPath id="clip27">
            <path d="M-1.1,4.5C11.8,14,28.9,18.6,47.6,16.4C67.6,14.1,70.5,1,70.5,1C70.5,1,70.7,15.5,43.6,17.9C27.6,19.2,8.4,13.2,-1.1,4.5z"/>
        </clipPath>
        <linearGradient id="lg53" y1="0%" x1="0%" x2="100%" y2="0%">
            <stop offset="0" stop-color="#ff7979"/>
            <stop offset="0.88" stop-color="#ff7979"/>
            <stop offset="1" stop-color="#f35555"/>
        </linearGradient>
        <linearGradient id="lg54" y1="0%" x1="0%" x2="0%" y2="100%">
            <stop offset="0" stop-color="#ff7979"/>
            <stop offset="0.88" stop-color="#ff7979"/>
            <stop offset="1" stop-color="#f35555"/>
        </linearGradient>
        <clipPath id="clip28">
            <path d="M-0.5,1.6C7.4,6.5,-4.9,20.5,14.4,12.1C33.5,3.9,11,2.7,11,2.7L-0.5,1.6z"/>
        </clipPath>
        <linearGradient id="lg55" y1="0%" x1="0%" x2="100%" y2="0%">
            <stop offset="0" stop-color="#ff7979"/>
            <stop offset="0.88" stop-color="#ff7979"/>
            <stop offset="1" stop-color="#f35555"/>
        </linearGradient>
        <linearGradient id="lg56" y1="0%" x1="0%" x2="0%" y2="100%">
            <stop offset="0" stop-color="#ff7979"/>
            <stop offset="0.88" stop-color="#ff7979"/>
            <stop offset="1" stop-color="#f35555"/>
        </linearGradient>
        <clipPath id="clip29">
            <path d="M0,4.3L4.2,103.3C4.2,103.3,3.5,108.2,7.7,110.5C12.2,113,159.6,186.1,159.6,186.1C159.6,186.1,167,186.3,167.5,180.7C167.5,179,167.5,66.1,167.5,66.1C167.5,66.1,166.5,62.3,163.8,60.2C160.4,57.7,22.2,6.1,8.7,.4C5.1,-1.1,.8,1.5,0,4.3z"/>
        </clipPath>
        <linearGradient id="lg57" y1="0%" x1="0%" x2="100%" y2="0%">
            <stop offset="0" stop-color="#ff7979"/>
            <stop offset="0.88" stop-color="#ff7979"/>
            <stop offset="1" stop-color="#f35555"/>
        </linearGradient>
        <linearGradient id="lg58" y1="0%" x1="0%" x2="0%" y2="100%">
            <stop offset="0" stop-color="#ff7979"/>
            <stop offset="0.88" stop-color="#ff7979"/>
            <stop offset="1" stop-color="#f35555"/>
        </linearGradient>
        <clipPath id="clip30">
            <path d="M.2,1.9L0,106.3C0,106.3,-0.6,111.2,3.6,113.6C8.1,116.1,159.8,183.6,159.8,183.6C159.8,183.6,163.5,183.6,163.5,180.2C163.5,178.5,163.5,66.2,163.5,66.2C163.5,66.2,163.5,63.1,160.8,61C157.5,58.5,4.8,.3,4.8,.3C4.8,.3,1.1,-1,.2,1.9z"/>
        </clipPath>
        <linearGradient id="lg59" y1="0%" x1="0%" x2="100%" y2="0%">
            <stop offset="0" stop-color="#ff7979"/>
            <stop offset="0.88" stop-color="#ff7979"/>
            <stop offset="1" stop-color="#f35555"/>
        </linearGradient>
        <linearGradient id="lg60" y1="0%" x1="0%" x2="0%" y2="100%">
            <stop offset="0" stop-color="#ff7979"/>
            <stop offset="0.88" stop-color="#ff7979"/>
            <stop offset="1" stop-color="#f35555"/>
        </linearGradient>
        <clipPath id="clip31">
            <path d="M.4,1.5L0,96.6C0,96.6,-0.5,100.7,3.1,102.6C7,104.7,149,167.7,149,167.7C149,167.7,152.1,167.7,152.1,164.8C152.1,163.4,152.5,61.7,152.5,61.7C152.5,61.7,152.5,59,150.2,57.4C147.4,55.2,4.3,.2,4.3,.2C4.3,.2,1.1,-0.8,.4,1.5z"/>
        </clipPath>
        <linearGradient id="lg61" y1="0%" x1="0%" x2="100%" y2="0%">
            <stop offset="0" stop-color="#ff7979"/>
            <stop offset="0.88" stop-color="#ff7979"/>
            <stop offset="1" stop-color="#f35555"/>
        </linearGradient>
        <linearGradient id="lg62" y1="0%" x1="0%" x2="0%" y2="100%">
            <stop offset="0" stop-color="#ff7979"/>
            <stop offset="0.88" stop-color="#ff7979"/>
            <stop offset="1" stop-color="#f35555"/>
        </linearGradient>
        <clipPath id="clip32">
            <path d="M0,94.7L91.2,138.1C91.2,138.1,94.8,138.1,94.8,134.7C94.8,133,94.8,20.7,94.8,20.7C94.8,20.7,94.8,17.6,92.1,15.5C90.9,14.6,74.8,8,54.7,0C52.5,-0.9,0,94.7,0,94.7z"/>
        </clipPath>
        <linearGradient id="lg63" y1="0%" x1="0%" x2="100%" y2="0%">
            <stop offset="0" stop-color="#ff7979"/>
            <stop offset="0.88" stop-color="#ff7979"/>
            <stop offset="1" stop-color="#f35555"/>
        </linearGradient>
        <linearGradient id="lg64" y1="0%" x1="0%" x2="0%" y2="100%">
            <stop offset="0" stop-color="#ff7979"/>
            <stop offset="0.88" stop-color="#ff7979"/>
            <stop offset="1" stop-color="#f35555"/>
        </linearGradient>
        <clipPath id="clip33">
            <path d="M47.5,10.9C47.5,10.9,51.5,31.8,34.1,55.5C16.7,79.3,0,84.5,0,84.5L19,0L47.5,10.9z"/>
        </clipPath>
        <linearGradient id="lg65" y1="0%" x1="0%" x2="100%" y2="0%">
            <stop offset="0" stop-color="#ff7979"/>
            <stop offset="0.88" stop-color="#ff7979"/>
            <stop offset="1" stop-color="#f35555"/>
        </linearGradient>
        <linearGradient id="lg66" y1="0%" x1="0%" x2="0%" y2="100%">
            <stop offset="0" stop-color="#ff7979"/>
            <stop offset="0.88" stop-color="#ff7979"/>
            <stop offset="1" stop-color="#f35555"/>
        </linearGradient>
        <clipPath id="clip34">
            <path d="M19.8,3.5C19.8,3.5,34.2,20.5,45.4,48.2C56.5,76,44.2,108.5,44.2,108.5L0,93.8C0,93.8,27.5,88.1,26.4,49.2C25.8,28.7,10.7,0,11.6,0L19.8,3.5z"/>
        </clipPath>
        <linearGradient id="lg67" y1="0%" x1="0%" x2="100%" y2="0%">
            <stop offset="0" stop-color="#ff7979"/>
            <stop offset="0.88" stop-color="#ff7979"/>
            <stop offset="1" stop-color="#f35555"/>
        </linearGradient>
        <linearGradient id="lg68" y1="0%" x1="0%" x2="0%" y2="100%">
            <stop offset="0" stop-color="#ff7979"/>
            <stop offset="0.88" stop-color="#ff7979"/>
            <stop offset="1" stop-color="#f35555"/>
        </linearGradient>
        <clipPath id="clip35">
            <path d="M60.8,0C60.8,0,43.5,19.8,24.6,44C13.3,58.5,-2.3,73.6,.1,75.2C2.6,76.8,12.2,64.5,68.5,39C94.4,27.3,101,106.5,101,78.7C100.8,16.3,70.1,3.7,70,3.7L60.8,0z"/>
        </clipPath>
        <linearGradient id="lg69" y1="0%" x1="0%" x2="100%" y2="0%">
            <stop offset="0" stop-color="#ff7979"/>
            <stop offset="0.88" stop-color="#ff7979"/>
            <stop offset="1" stop-color="#f35555"/>
        </linearGradient>
        <linearGradient id="lg70" y1="0%" x1="0%" x2="0%" y2="100%">
            <stop offset="0" stop-color="#ff7979"/>
            <stop offset="0.88" stop-color="#ff7979"/>
            <stop offset="1" stop-color="#f35555"/>
        </linearGradient>
        <clipPath id="clip36">
            <path d="M1.1,58.2C27.8,35,101,94.7,116.9,45.8C126.2,17.3,117.2,0,117.2,0C117.2,0,59.7,11.4,30.4,31.1C1.1,50.8,-2.7,58.2,1.1,58.2z"/>
        </clipPath>
        <linearGradient id="lg71" y1="0%" x1="0%" x2="100%" y2="0%">
            <stop offset="0" stop-color="#ff7979"/>
            <stop offset="0.88" stop-color="#ff7979"/>
            <stop offset="1" stop-color="#f35555"/>
        </linearGradient>
        <linearGradient id="lg72" y1="0%" x1="0%" x2="0%" y2="100%">
            <stop offset="0" stop-color="#ff7979"/>
            <stop offset="0.88" stop-color="#ff7979"/>
            <stop offset="1" stop-color="#f35555"/>
        </linearGradient>
    </defs>
    <g transform="translate(2.03,2)">
        <g transform="translate(-0,0)">
            <g id="shape1" transform="translate(0.74,0)">
                <g clip-path="url(#clip1)">
                    <path stroke-width="2" d="M288.3,0L288.3,144.4L0,0z" stroke="url(#lg1)" fill="url(#lg1)"/>
                </g>
                <g clip-path="url(#clip1)">
                    <path stroke-width="2" d="M288.3,144.4L0,144.4L0,0z" stroke="url(#lg2)" fill="url(#lg2)"/>
                </g>
                <path stroke-width="2" d="M0,77.1L2,71.8L172.9,0L288.3,29.7L112.9,144.4L0,77.1z" stroke="#ffffff" fill="none"/>
            </g>
            <g id="shape2" transform="translate(61.86,29.66)">
                <g clip-path="url(#clip2)">
                    <path stroke-width="2" d="M227.9,3.5L227.9,350.4L0,3.5z" stroke="url(#lg3)" fill="url(#lg3)"/>
                </g>
                <g clip-path="url(#clip2)">
                    <path stroke-width="2" d="M227.9,350.4L0,350.4L0,3.5z" stroke="url(#lg4)" fill="url(#lg4)"/>
                </g>
                <path stroke-width="2" d="M45.3,350.4L227.9,251.5L227.9,3.5L47.9,84.8L0,229.1L45.3,350.4z" stroke="#ffffff" fill="none"/>
            </g>
            <g id="shape3" transform="translate(-0.03,71.84)">
                <g clip-path="url(#clip3)">
                    <path stroke-width="2" d="M109.9,0L109.9,308.2L0,0z" stroke="url(#lg5)" fill="url(#lg5)"/>
                </g>
                <g clip-path="url(#clip3)">
                    <path stroke-width="2" d="M109.9,308.2L0,308.2L0,0z" stroke="url(#lg6)" fill="url(#lg6)"/>
                </g>
                <path stroke-width="2" d="M3.6,0L106.1,40.3C108.3,40.9,109.5,42.9,109.9,44L109.9,304.9C109.9,307,108.1,308.2,106,308.2L3.7,258.2C.9,256.6,.4,255.8,0,254.4L0,3.5C0,1.5,1.6,0,3.6,0z" stroke="#ffffff" fill="none"/>
            </g>
            <g id="shape4" transform="translate(98.62,27.2)">
                <g clip-path="url(#clip4)">
                    <path stroke-width="2" d="M191.1,0L191.1,101.7L0,0z" stroke="url(#lg7)" fill="url(#lg7)"/>
                </g>
                <g clip-path="url(#clip4)">
                    <path stroke-width="2" d="M191.1,101.7L0,101.7L0,0z" stroke="url(#lg8)" fill="url(#lg8)"/>
                </g>
                <path stroke-width="2" d="M0,82.9C7.8,86.1,8.7,86,14.4,90.9C17.5,93.6,19,101.7,19,101.7L190.8,7.4C190.8,7.4,191.8,3.7,190.3,2.5C189,1.5,178.3,0,178.3,0L0,82.9z" stroke="#ffffff" fill="none"/>
            </g>
            <g id="shape5" transform="translate(97.62,109.33)">
                <g clip-path="url(#clip5)">
                    <path stroke-width="2" d="M20,0L20,271L-0,0z" stroke="url(#lg9)" fill="url(#lg9)"/>
                </g>
                <g clip-path="url(#clip5)">
                    <path stroke-width="2" d="M20,271L-0,271L-0,0z" stroke="url(#lg10)" fill="url(#lg10)"/>
                </g>
                <path stroke-width="2" d="M-0,0C4.8,0,19.1,6.7,19.9,18.3C20.1,22.3,19.9,264.1,19.9,264.1C19.9,264.1,10.1,271.9,9,270.9C7.9,269.5,.2,266.9,.2,266.9L-0,0z" stroke="#ffffff" fill="none"/>
            </g>
            <g id="shape6" transform="translate(0.43,73.78)">
                <g clip-path="url(#clip6)">
                    <path stroke-width="2" d="M65.4,-0.1L65.4,270.1L-0,-0.1z" stroke="url(#lg11)" fill="url(#lg11)"/>
                </g>
                <g clip-path="url(#clip6)">
                    <path stroke-width="2" d="M65.4,270.1L-0,270.1L-0,-0.1z" stroke="url(#lg12)" fill="url(#lg12)"/>
                </g>
                <path stroke-width="2" d="M65.4,22.1L32.7,270.1L.1,256.2L.1,.9C.1,.9,-1,-1,3.8,.5L65.4,22.1z" stroke="#ffffff" fill="none"/>
            </g>
            <g transform="translate(0.25,104.55)">
                <g id="shape7" transform="translate(0.39,-0)">
                    <g clip-path="url(#clip7)">
                        <path stroke-width="2" d="M59.9,0L59.9,33L0,0z" stroke="url(#lg13)" fill="url(#lg13)"/>
                    </g>
                    <g clip-path="url(#clip7)">
                        <path stroke-width="2" d="M59.9,33L0,33L0,0z" stroke="url(#lg14)" fill="url(#lg14)"/>
                    </g>
                    <path stroke-width="2" d="M0,0L0,5.5L59.9,33L59.9,27.3L0,0z" stroke="#ffffff" fill="none"/>
                </g>
                <g id="shape8" transform="translate(0.39,37.26)">
                    <g clip-path="url(#clip8)">
                        <path stroke-width="2" d="M59.9,0L59.9,33.4L0,0z" stroke="url(#lg15)" fill="url(#lg15)"/>
                    </g>
                    <g clip-path="url(#clip8)">
                        <path stroke-width="2" d="M59.9,33.4L0,33.4L0,0z" stroke="url(#lg16)" fill="url(#lg16)"/>
                    </g>
                    <path stroke-width="2" d="M0,0L0,6.1L59.9,33.4L59.9,26.6L0,0z" stroke="#ffffff" fill="none"/>
                </g>
                <g id="shape9" transform="translate(-0,74.82)">
                    <g clip-path="url(#clip9)">
                        <path stroke-width="2" d="M60.2,0L60.2,34.1L0,0z" stroke="url(#lg17)" fill="url(#lg17)"/>
                    </g>
                    <g clip-path="url(#clip9)">
                        <path stroke-width="2" d="M60.2,34.1L0,34.1L0,0z" stroke="url(#lg18)" fill="url(#lg18)"/>
                    </g>
                    <path stroke-width="2" d="M0,0L0,6.4L60.2,34.1L60.2,28L0,0z" stroke="#ffffff" fill="none"/>
                </g>
                <g id="shape10" transform="translate(0.53,113.7)">
                    <g clip-path="url(#clip10)">
                        <path stroke-width="2" d="M59.4,0L59.4,33.4L0,0z" stroke="url(#lg19)" fill="url(#lg19)"/>
                    </g>
                    <g clip-path="url(#clip10)">
                        <path stroke-width="2" d="M59.4,33.4L0,33.4L0,0z" stroke="url(#lg20)" fill="url(#lg20)"/>
                    </g>
                    <path stroke-width="2" d="M0,0L0,6.4L59.4,33.4L59.4,27.3L0,0z" stroke="#ffffff" fill="none"/>
                </g>
                <g id="shape11" transform="translate(55.43,25.59)">
                    <g clip-path="url(#clip11)">
                        <path stroke-width="2" d="M53.8,0L53.8,28.8L0,0z" stroke="url(#lg21)" fill="url(#lg21)"/>
                    </g>
                    <g clip-path="url(#clip11)">
                        <path stroke-width="2" d="M53.8,28.8L0,28.8L0,0z" stroke="url(#lg22)" fill="url(#lg22)"/>
                    </g>
                    <path stroke-width="2" d="M0,0L.1,5.4L53.8,28.8L53.8,23.6L0,0z" stroke="#ffffff" fill="none"/>
                </g>
                <g id="shape12" transform="translate(55.43,61.97)">
                    <g clip-path="url(#clip12)">
                        <path stroke-width="2" d="M54.2,0L54.2,30.8L0,0z" stroke="url(#lg23)" fill="url(#lg23)"/>
                    </g>
                    <g clip-path="url(#clip12)">
                        <path stroke-width="2" d="M54.2,30.8L0,30.8L0,0z" stroke="url(#lg24)" fill="url(#lg24)"/>
                    </g>
                    <path stroke-width="2" d="M0,0L0,6.7L54.2,30.8L54.2,24.7L0,0z" stroke="#ffffff" fill="none"/>
                </g>
                <g id="shape13" transform="translate(55.11,100.52)">
                    <g clip-path="url(#clip13)">
                        <path stroke-width="2" d="M54.5,0L54.5,30.2L0,0z" stroke="url(#lg25)" fill="url(#lg25)"/>
                    </g>
                    <g clip-path="url(#clip13)">
                        <path stroke-width="2" d="M54.5,30.2L0,30.2L0,0z" stroke="url(#lg26)" fill="url(#lg26)"/>
                    </g>
                    <path stroke-width="2" d="M0,0L54.5,24.4L54.5,30.2L0,6.7L0,0z" stroke="#ffffff" fill="none"/>
                </g>
                <g id="shape14" transform="translate(55.11,138.44)">
                    <g clip-path="url(#clip14)">
                        <path stroke-width="2" d="M54.5,0L54.5,31.2L0,0z" stroke="url(#lg27)" fill="url(#lg27)"/>
                    </g>
                    <g clip-path="url(#clip14)">
                        <path stroke-width="2" d="M54.5,31.2L0,31.2L0,0z" stroke="url(#lg28)" fill="url(#lg28)"/>
                    </g>
                    <path stroke-width="2" d="M0,0L54.5,25.4L54.5,31.2L0,6.7L0,0z" stroke="#ffffff" fill="none"/>
                </g>
                <g id="shape15" transform="translate(58.32,26.88)">
                    <g clip-path="url(#clip15)">
                        <path stroke-width="2" d="M45.2,0L45.2,26.1L0,0z" stroke="url(#lg29)" fill="url(#lg29)"/>
                    </g>
                    <g clip-path="url(#clip15)">
                        <path stroke-width="2" d="M45.2,26.1L0,26.1L0,0z" stroke="url(#lg30)" fill="url(#lg30)"/>
                    </g>
                    <path stroke-width="2" d="M0,0L40.6,17.9L45.2,26.1L.1,6L0,0z" stroke="#ffffff" fill="none"/>
                </g>
                <g id="shape16" transform="translate(57.61,62.61)">
                    <g clip-path="url(#clip16)">
                        <path stroke-width="2" d="M45.1,0L45.1,27.8L0,0z" stroke="url(#lg31)" fill="url(#lg31)"/>
                    </g>
                    <g clip-path="url(#clip16)">
                        <path stroke-width="2" d="M45.1,27.8L0,27.8L0,0z" stroke="url(#lg32)" fill="url(#lg32)"/>
                    </g>
                    <path stroke-width="2" d="M0,0L40.2,18.5L45.1,27.8L.3,7.5L0,0z" stroke="#ffffff" fill="none"/>
                </g>
                <g id="shape17" transform="translate(58.13,101.68)">
                    <g clip-path="url(#clip17)">
                        <path stroke-width="2" d="M45.2,0L45.2,27L0,0z" stroke="url(#lg33)" fill="url(#lg33)"/>
                    </g>
                    <g clip-path="url(#clip17)">
                        <path stroke-width="2" d="M45.2,27L0,27L0,0z" stroke="url(#lg34)" fill="url(#lg34)"/>
                    </g>
                    <path stroke-width="2" d="M0,0L40.6,18L45.2,27L.1,6.9L0,0z" stroke="#ffffff" fill="none"/>
                </g>
                <g id="shape18" transform="translate(58.13,140.18)">
                    <g clip-path="url(#clip18)">
                        <path stroke-width="2" d="M45.2,0L45.2,26.1L0,0z" stroke="url(#lg35)" fill="url(#lg35)"/>
                    </g>
                    <g clip-path="url(#clip18)">
                        <path stroke-width="2" d="M45.2,26.1L0,26.1L0,0z" stroke="url(#lg36)" fill="url(#lg36)"/>
                    </g>
                    <path stroke-width="2" d="M0,0L40.6,17.9L45.2,26.1L.1,6L0,0z" stroke="#ffffff" fill="none"/>
                </g>
                <g id="shape19" transform="translate(58.13,140.18)">
                    <g clip-path="url(#clip19)">
                        <path stroke-width="2" d="M46.9,0L46.9,27.3L0,0z" stroke="url(#lg37)" fill="url(#lg37)"/>
                    </g>
                    <g clip-path="url(#clip19)">
                        <path stroke-width="2" d="M46.9,27.3L0,27.3L0,0z" stroke="url(#lg38)" fill="url(#lg38)"/>
                    </g>
                    <path stroke-width="2" d="M0,0L46.9,21.6L46.9,27.3L6.4,9.6L0,0z" stroke="#ffffff" fill="none"/>
                </g>
                <g id="shape20" transform="translate(58.89,101.52)">
                    <g clip-path="url(#clip20)">
                        <path stroke-width="2" d="M46.9,0L46.9,27.3L0,0z" stroke="url(#lg39)" fill="url(#lg39)"/>
                    </g>
                    <g clip-path="url(#clip20)">
                        <path stroke-width="2" d="M46.9,27.3L0,27.3L0,0z" stroke="url(#lg40)" fill="url(#lg40)"/>
                    </g>
                    <path stroke-width="2" d="M0,0L46.9,21.6L46.9,27.3L6.4,9.6L0,0z" stroke="#ffffff" fill="none"/>
                </g>
                <g id="shape21" transform="translate(59.06,63.74)">
                    <g clip-path="url(#clip21)">
                        <path stroke-width="2" d="M46.9,0L46.9,27.3L0,0z" stroke="url(#lg41)" fill="url(#lg41)"/>
                    </g>
                    <g clip-path="url(#clip21)">
                        <path stroke-width="2" d="M46.9,27.3L0,27.3L0,0z" stroke="url(#lg42)" fill="url(#lg42)"/>
                    </g>
                    <path stroke-width="2" d="M0,0L46.9,21.6L46.9,27.3L6.4,9.6L0,0z" stroke="#ffffff" fill="none"/>
                </g>
                <g id="shape22" transform="translate(59.06,26.34)">
                    <g clip-path="url(#clip22)">
                        <path stroke-width="2" d="M46.9,0L46.9,27.3L0,0z" stroke="url(#lg43)" fill="url(#lg43)"/>
                    </g>
                    <g clip-path="url(#clip22)">
                        <path stroke-width="2" d="M46.9,27.3L0,27.3L0,0z" stroke="url(#lg44)" fill="url(#lg44)"/>
                    </g>
                    <path stroke-width="2" d="M0,0L46.9,21.6L46.9,27.3L6.4,9.6L0,0z" stroke="#ffffff" fill="none"/>
                </g>
            </g>
        </g>
        <g transform="translate(162.28,210.98)">
            <g transform="translate(31.98,129.14)">
                <g id="shape23" transform="translate(0.21,3.09)">
                    <g clip-path="url(#clip23)">
                        <path stroke-width="2" d="M83.9,.2L83.9,52.1L-0.3,.2z" stroke="url(#lg45)" fill="url(#lg45)"/>
                    </g>
                    <g clip-path="url(#clip23)">
                        <path stroke-width="2" d="M83.9,52.1L-0.3,52.1L-0.3,.2z" stroke="url(#lg46)" fill="url(#lg46)"/>
                    </g>
                    <path stroke-width="2" d="M-0.2,14.3C3.2,1.3,25.3,-3.2,48.2,2.8C71,8.8,86.8,24.2,83.4,37.2C80,50.2,58.6,55.7,35.8,49.7C12.9,43.7,-1.5,28.1,-0.2,14.3z" stroke="#ffffff" fill="none"/>
                </g>
                <g id="shape24" transform="translate(0.06,-0.02)">
                    <g clip-path="url(#clip24)">
                        <path stroke-width="2" d="M83.8,-0L83.8,51.8L-0,-0z" stroke="url(#lg47)" fill="url(#lg47)"/>
                    </g>
                    <g clip-path="url(#clip24)">
                        <path stroke-width="2" d="M83.8,51.8L-0,51.8L-0,-0z" stroke="url(#lg48)" fill="url(#lg48)"/>
                    </g>
                    <path stroke-width="2" d="M.4,14.9C3.9,2,25.2,-3.6,48.1,2.4C70.9,8.5,86.7,23.9,83.3,36.8C79.9,49.8,58.5,55.4,35.7,49.3C12.8,43.3,-3,27.9,.4,14.9z" stroke="#ffffff" fill="none"/>
                </g>
                <g id="shape25" transform="translate(0.06,-0.02)">
                    <g clip-path="url(#clip25)">
                        <path stroke-width="2" d="M83.8,-0L83.8,51.8L-0,-0z" stroke="url(#lg49)" fill="url(#lg49)"/>
                    </g>
                    <g clip-path="url(#clip25)">
                        <path stroke-width="2" d="M83.8,51.8L-0,51.8L-0,-0z" stroke="url(#lg50)" fill="url(#lg50)"/>
                    </g>
                    <path stroke-width="2" d="M.4,14.9C3.9,2,25.2,-3.6,48.1,2.4C70.9,8.5,86.7,23.9,83.3,36.8C79.9,49.8,58.5,55.4,35.7,49.3C12.8,43.3,-3,27.9,.4,14.9z" stroke="#ffffff" fill="none"/>
                </g>
                <g id="shape26" transform="translate(0.06,-0.02)">
                    <g clip-path="url(#clip26)">
                        <path stroke-width="2" d="M83.8,-0L83.8,51.8L-0,-0z" stroke="url(#lg51)" fill="url(#lg51)"/>
                    </g>
                    <g clip-path="url(#clip26)">
                        <path stroke-width="2" d="M83.8,51.8L-0,51.8L-0,-0z" stroke="url(#lg52)" fill="url(#lg52)"/>
                    </g>
                    <path stroke-width="2" d="M.4,14.9C3.9,2,25.2,-3.6,48.1,2.4C70.9,8.5,86.7,23.9,83.3,36.8C79.9,49.8,58.5,55.4,35.7,49.3C12.8,43.3,-3,27.9,.4,14.9z" stroke="#ffffff" fill="none"/>
                </g>
                <g id="shape27" transform="translate(13.98,35.45)">
                    <g clip-path="url(#clip27)">
                        <path stroke-width="2" d="M70.5,1L70.5,18.1L-1.1,1z" stroke="url(#lg53)" fill="url(#lg53)"/>
                    </g>
                    <g clip-path="url(#clip27)">
                        <path stroke-width="2" d="M70.5,18.1L-1.1,18.1L-1.1,1z" stroke="url(#lg54)" fill="url(#lg54)"/>
                    </g>
                    <path stroke-width="2" d="M-1.1,4.5C11.8,14,28.9,18.6,47.6,16.4C67.6,14.1,70.5,1,70.5,1C70.5,1,70.7,15.5,43.6,17.9C27.6,19.2,8.4,13.2,-1.1,4.5z" stroke="#ffffff" fill="none"/>
                </g>
                <g id="shape28" transform="translate(36.39,11.57)">
                    <g clip-path="url(#clip28)">
                        <path stroke-width="2" d="M22.1,1.6L22.1,14.8L-0.5,1.6z" stroke="url(#lg55)" fill="url(#lg55)"/>
                    </g>
                    <g clip-path="url(#clip28)">
                        <path stroke-width="2" d="M22.1,14.8L-0.5,14.8L-0.5,1.6z" stroke="url(#lg56)" fill="url(#lg56)"/>
                    </g>
                    <path stroke-width="2" d="M-0.5,1.6C7.4,6.5,-4.9,20.5,14.4,12.1C33.5,3.9,11,2.7,11,2.7L-0.5,1.6z" stroke="#ffffff" fill="none"/>
                </g>
            </g>
            <g id="shape29" transform="translate(0.14,0)">
                <g clip-path="url(#clip29)">
                    <path stroke-width="2" d="M167.5,-0L167.5,186.1L0,-0z" stroke="url(#lg57)" fill="url(#lg57)"/>
                </g>
                <g clip-path="url(#clip29)">
                    <path stroke-width="2" d="M167.5,186.1L0,186.1L0,-0z" stroke="url(#lg58)" fill="url(#lg58)"/>
                </g>
                <path stroke-width="2" d="M0,4.3L4.2,103.3C4.2,103.3,3.5,108.2,7.7,110.5C12.2,113,159.6,186.1,159.6,186.1C159.6,186.1,167,186.3,167.5,180.7C167.5,179,167.5,66.1,167.5,66.1C167.5,66.1,166.5,62.3,163.8,60.2C160.4,57.7,22.2,6.1,8.7,.4C5.1,-1.1,.8,1.5,0,4.3z" stroke="#ffffff" fill="none"/>
            </g>
            <g id="shape30" transform="translate(0.02,2.44)">
                <g clip-path="url(#clip30)">
                    <path stroke-width="2" d="M163.5,-0L163.5,183.6L-0,-0z" stroke="url(#lg59)" fill="url(#lg59)"/>
                </g>
                <g clip-path="url(#clip30)">
                    <path stroke-width="2" d="M163.5,183.6L-0,183.6L-0,-0z" stroke="url(#lg60)" fill="url(#lg60)"/>
                </g>
                <path stroke-width="2" d="M.2,1.9L0,106.3C0,106.3,-0.6,111.2,3.6,113.6C8.1,116.1,159.8,183.6,159.8,183.6C159.8,183.6,163.5,183.6,163.5,180.2C163.5,178.5,163.5,66.2,163.5,66.2C163.5,66.2,163.5,63.1,160.8,61C157.5,58.5,4.8,.3,4.8,.3C4.8,.3,1.1,-1,.2,1.9z" stroke="#ffffff" fill="none"/>
            </g>
            <g id="shape31" transform="translate(5.39,9.67)">
                <g clip-path="url(#clip31)">
                    <path stroke-width="2" d="M152.5,-0L152.5,167.7L-0,-0z" stroke="url(#lg61)" fill="url(#lg61)"/>
                </g>
                <g clip-path="url(#clip31)">
                    <path stroke-width="2" d="M152.5,167.7L-0,167.7L-0,-0z" stroke="url(#lg62)" fill="url(#lg62)"/>
                </g>
                <path stroke-width="2" d="M.4,1.5L0,96.6C0,96.6,-0.5,100.7,3.1,102.6C7,104.7,149,167.7,149,167.7C149,167.7,152.1,167.7,152.1,164.8C152.1,163.4,152.5,61.7,152.5,61.7C152.5,61.7,152.5,59,150.2,57.4C147.4,55.2,4.3,.2,4.3,.2C4.3,.2,1.1,-0.8,.4,1.5z" stroke="#ffffff" fill="none"/>
            </g>
            <g id="shape32" transform="translate(68.71,47.94)">
                <g clip-path="url(#clip32)">
                    <path stroke-width="2" d="M94.8,-0L94.8,138.1L0,-0z" stroke="url(#lg63)" fill="url(#lg63)"/>
                </g>
                <g clip-path="url(#clip32)">
                    <path stroke-width="2" d="M94.8,138.1L0,138.1L0,-0z" stroke="url(#lg64)" fill="url(#lg64)"/>
                </g>
                <path stroke-width="2" d="M0,94.7L91.2,138.1C91.2,138.1,94.8,138.1,94.8,134.7C94.8,133,94.8,20.7,94.8,20.7C94.8,20.7,94.8,17.6,92.1,15.5C90.9,14.6,74.8,8,54.7,0C52.5,-0.9,0,94.7,0,94.7z" stroke="#ffffff" fill="none"/>
            </g>
            <g id="shape33" transform="translate(10.58,17.45)">
                <g clip-path="url(#clip33)">
                    <path stroke-width="2" d="M47.9,0L47.9,84.5L0,0z" stroke="url(#lg65)" fill="url(#lg65)"/>
                </g>
                <g clip-path="url(#clip33)">
                    <path stroke-width="2" d="M47.9,84.5L0,84.5L0,0z" stroke="url(#lg66)" fill="url(#lg66)"/>
                </g>
                <path stroke-width="2" d="M47.5,10.9C47.5,10.9,51.5,31.8,34.1,55.5C16.7,79.3,0,84.5,0,84.5L19,0L47.5,10.9z" stroke="#ffffff" fill="none"/>
            </g>
            <g id="shape34" transform="translate(18.79,17.9)">
                <g clip-path="url(#clip34)">
                    <path stroke-width="2" d="M50,0L50,108.5L0,0z" stroke="url(#lg67)" fill="url(#lg67)"/>
                </g>
                <g clip-path="url(#clip34)">
                    <path stroke-width="2" d="M50,108.5L0,108.5L0,0z" stroke="url(#lg68)" fill="url(#lg68)"/>
                </g>
                <path stroke-width="2" d="M19.8,3.5C19.8,3.5,34.2,20.5,45.4,48.2C56.5,76,44.2,108.5,44.2,108.5L0,93.8C0,93.8,27.5,88.1,26.4,49.2C25.8,28.7,10.7,0,11.6,0L19.8,3.5z" stroke="#ffffff" fill="none"/>
            </g>
            <g id="shape35" transform="translate(52.92,50.08)">
                <g clip-path="url(#clip35)">
                    <path stroke-width="2" d="M101,0L101,84.6L-0.1,0z" stroke="url(#lg69)" fill="url(#lg69)"/>
                </g>
                <g clip-path="url(#clip35)">
                    <path stroke-width="2" d="M101,84.6L-0.1,84.6L-0.1,0z" stroke="url(#lg70)" fill="url(#lg70)"/>
                </g>
                <path stroke-width="2" d="M60.8,0C60.8,0,43.5,19.8,24.6,44C13.3,58.5,-2.3,73.6,.1,75.2C2.6,76.8,12.2,64.5,68.5,39C94.4,27.3,101,106.5,101,78.7C100.8,16.3,70.1,3.7,70,3.7L60.8,0z" stroke="#ffffff" fill="none"/>
            </g>
            <g id="shape36" transform="translate(33.06,62.13)">
                <g clip-path="url(#clip36)">
                    <path stroke-width="2" d="M121.1,0L121.1,65.6L-0.1,0z" stroke="url(#lg71)" fill="url(#lg71)"/>
                </g>
                <g clip-path="url(#clip36)">
                    <path stroke-width="2" d="M121.1,65.6L-0.1,65.6L-0.1,0z" stroke="url(#lg72)" fill="url(#lg72)"/>
                </g>
                <path stroke-width="2" d="M1.1,58.2C27.8,35,101,94.7,116.9,45.8C126.2,17.3,117.2,0,117.2,0C117.2,0,59.7,11.4,30.4,31.1C1.1,50.8,-2.7,58.2,1.1,58.2z" stroke="#ffffff" fill="none"/>
            </g>
        </g>
    </g>
</svg>
