<svg height="424" xmlns="http://www.w3.org/2000/svg" width="355" xmlns:xlink="http://www.w3.org/1999/xlink" viewBox="0 0 355 423.774">
    <defs/>
    <g transform="translate(5.33,5.33)">
        <g transform="translate(0.03,0)">
            <path stroke-width="3.66667" stroke="#ffffff" id="shape1" fill="#e5d926" transform="translate(0.76,0)" d="M0,79.5L2.1,74L178.2,0L297.1,30.6L116.3,148.8L0,79.5z"/>
            <path stroke-width="3.66667" stroke="#ffffff" id="shape2" fill="#e5d926" transform="translate(63.73,30.56)" d="M46.7,361L234.9,259.1L234.9,3.6L49.4,87.4L0,236L46.7,361z"/>
            <path stroke-width="3.66667" stroke="#ffffff" id="shape3" fill="#e5d926" transform="translate(-0.03,74.02)" d="M3.7,0L109.3,41.5C111.6,42.1,112.8,44.2,113.2,45.4L113.2,314.2C113.2,316.3,111.3,317.5,109.2,317.5L3.9,266C.9,264.4,.4,263.6,0,262.1L0,3.6C0,1.5,1.6,0,3.7,0z"/>
            <path stroke-width="3.66667" stroke="#ffffff" id="shape4" fill="#e5d926" transform="translate(101.61,28.03)" d="M0,85.4C8,88.7,9,88.6,14.8,93.6C18,96.4,19.5,104.8,19.5,104.8L196.6,7.6C196.6,7.6,197.6,3.9,196.1,2.6C194.7,1.5,183.7,0,183.7,0L0,85.4z"/>
            <path stroke-width="3.66667" stroke="#ffffff" id="shape5" fill="#e5d926" transform="translate(100.58,112.64)" d="M-0,0C5,0,19.7,6.9,20.5,18.9C20.7,23,20.5,272.1,20.5,272.1C20.5,272.1,10.4,280.2,9.3,279.1C8.1,277.7,.2,275,.2,275L-0,0z"/>
            <path stroke-width="3.66667" stroke="#ffffff" id="shape6" fill="#e5d926" transform="translate(0.45,76.01)" d="M67.4,22.8L33.7,278.3L.1,264L.1,1C.1,1,-1,-1,3.9,.5L67.4,22.8z"/>
            <g transform="translate(0.25,107.72)">
                <path stroke-width="3.66667" stroke="#ffffff" id="shape7" fill="#e5d926" transform="translate(0.4,-0)" d="M0,0L0,5.6L61.7,34.1L61.7,28.1L0,0z"/>
                <path stroke-width="3.66667" stroke="#ffffff" id="shape8" fill="#e5d926" transform="translate(0.4,38.39)" d="M0,0L0,6.3L61.7,34.4L61.7,27.4L0,0z"/>
                <path stroke-width="3.66667" stroke="#ffffff" id="shape9" fill="#e5d926" transform="translate(-0,77.09)" d="M0,0L0,6.6L62.1,35.1L62.1,28.8L0,0z"/>
                <path stroke-width="3.66667" stroke="#ffffff" id="shape10" fill="#e5d926" transform="translate(0.55,117.14)" d="M0,0L0,6.6L61.2,34.4L61.2,28.1L0,0z"/>
                <path stroke-width="3.66667" stroke="#ffffff" id="shape11" fill="#e5d926" transform="translate(57.11,26.37)" d="M0,0L.1,5.6L55.5,29.7L55.5,24.4L0,0z"/>
                <path stroke-width="3.66667" stroke="#ffffff" id="shape12" fill="#e5d926" transform="translate(57.11,63.84)" d="M0,0L0,7L55.8,31.8L55.8,25.5L0,0z"/>
                <path stroke-width="3.66667" stroke="#ffffff" id="shape13" fill="#e5d926" transform="translate(56.78,103.57)" d="M0,0L56.1,25.2L56.1,31.1L0,7L0,0z"/>
                <path stroke-width="3.66667" stroke="#ffffff" id="shape14" fill="#e5d926" transform="translate(56.78,142.63)" d="M0,0L56.1,26.2L56.1,32.1L0,7L0,0z"/>
                <path stroke-width="3.66667" stroke="#ffffff" id="shape15" fill="#e5d926" transform="translate(60.08,27.69)" d="M0,0L41.9,18.4L46.6,26.9L.1,6.2L0,0z"/>
                <path stroke-width="3.66667" stroke="#ffffff" id="shape16" fill="#e5d926" transform="translate(59.36,64.51)" d="M0,0L41.5,19.1L46.5,28.6L.3,7.7L0,0z"/>
                <path stroke-width="3.66667" stroke="#ffffff" id="shape17" fill="#e5d926" transform="translate(59.89,104.76)" d="M0,0L41.9,18.5L46.6,27.8L.1,7.2L0,0z"/>
                <path stroke-width="3.66667" stroke="#ffffff" id="shape18" fill="#e5d926" transform="translate(59.89,144.43)" d="M0,0L41.9,18.4L46.6,26.9L.1,6.2L0,0z"/>
                <path stroke-width="3.66667" stroke="#ffffff" id="shape19" fill="#e5d926" transform="translate(59.89,144.43)" d="M0,0L48.3,22.3L48.3,28.1L6.6,9.9L0,0z"/>
                <path stroke-width="3.66667" stroke="#ffffff" id="shape20" fill="#e5d926" transform="translate(60.68,104.6)" d="M0,0L48.3,22.3L48.3,28.1L6.6,9.9L0,0z"/>
                <path stroke-width="3.66667" stroke="#ffffff" id="shape21" fill="#e5d926" transform="translate(60.84,65.67)" d="M0,0L48.3,22.3L48.3,28.1L6.6,9.9L0,0z"/>
                <path stroke-width="3.66667" stroke="#ffffff" id="shape22" fill="#e5d926" transform="translate(60.84,27.14)" d="M0,0L48.3,22.3L48.3,28.1L6.6,9.9L0,0z"/>
            </g>
        </g>
        <g transform="translate(167.23,217.38)">
            <g transform="translate(32.95,133.05)">
                <path stroke-width="3.33333" stroke="#ffffff" id="shape23" fill="#e5d926" transform="translate(0.22,3.18)" d="M-0.2,14.7C3.3,1.4,26,-3.3,49.6,2.9C73.2,9.1,89.5,25,85.9,38.3C82.4,51.7,60.4,57.4,36.8,51.2C13.2,45,-1.5,29,-0.2,14.7z"/>
                <path stroke-width="3.33333" stroke="#ffffff" id="shape24" fill="#e5d926" transform="translate(0.06,-0.03)" d="M.4,15.4C4,2,25.9,-3.7,49.5,2.5C73.1,8.7,89.4,24.6,85.8,37.9C82.3,51.3,60.3,57,36.7,50.8C13.1,44.6,-3.1,28.7,.4,15.4z"/>
                <path stroke-width="3.33333" stroke="#ffffff" id="shape25" fill="#e5d926" transform="translate(0.06,-0.03)" d="M.4,15.4C4,2,25.9,-3.7,49.5,2.5C73.1,8.7,89.4,24.6,85.8,37.9C82.3,51.3,60.3,57,36.7,50.8C13.1,44.6,-3.1,28.7,.4,15.4z"/>
                <path stroke-width="3.33333" stroke="#ffffff" id="shape26" fill="#e5d926" transform="translate(0.06,-0.03)" d="M.4,15.4C4,2,25.9,-3.7,49.5,2.5C73.1,8.7,89.4,24.6,85.8,37.9C82.3,51.3,60.3,57,36.7,50.8C13.1,44.6,-3.1,28.7,.4,15.4z"/>
                <path stroke-width="3.33333" stroke="#ffffff" id="shape27" fill="#e5d926" transform="translate(14.4,36.52)" d="M-1.2,4.6C12.2,14.5,29.8,19.1,49,16.9C69.7,14.6,72.7,1,72.7,1C72.7,1,72.8,16,44.9,18.4C28.4,19.8,8.6,13.6,-1.2,4.6z"/>
                <path stroke-width="3.33333" stroke="#ffffff" id="shape28" fill="#e5d926" transform="translate(37.49,11.92)" d="M-0.6,1.6C7.6,6.7,-5,21.1,14.9,12.5C34.5,4,11.4,2.8,11.4,2.8L-0.6,1.6z"/>
            </g>
            <path stroke-width="3.33333" stroke="#ffffff" id="shape29" fill="#e5d926" transform="translate(0.15,0)" d="M0,4.4L4.3,106.4C4.3,106.4,3.6,111.5,7.9,113.9C12.6,116.5,164.4,191.7,164.4,191.7C164.4,191.7,172.1,191.9,172.5,186.2C172.5,184.4,172.5,68.1,172.5,68.1C172.5,68.1,171.6,64.2,168.7,62.1C165.3,59.4,22.8,6.3,9,.4C5.2,-1.2,.8,1.5,0,4.4z"/>
            <path stroke-width="3.33333" stroke="#ffffff" id="shape30" fill="#e5d926" transform="translate(0.02,2.52)" d="M.3,1.9L0,109.5C0,109.5,-0.6,114.6,3.7,117C8.4,119.6,164.7,189.2,164.7,189.2C164.7,189.2,168.4,189.2,168.4,185.6C168.4,183.9,168.4,68.2,168.4,68.2C168.4,68.2,168.4,65,165.7,62.9C162.3,60.2,5,.3,5,.3C5,.3,1.1,-1,.3,1.9z"/>
            <path stroke-width="3.33333" stroke="#ffffff" id="shape31" fill="#e5d926" transform="translate(5.56,9.96)" d="M.4,1.6L0,99.5C0,99.5,-0.5,103.7,3.2,105.7C7.2,107.9,153.5,172.8,153.5,172.8C153.5,172.8,156.8,172.8,156.8,169.8C156.8,168.3,157.2,63.5,157.2,63.5C157.2,63.5,157.2,60.8,154.8,59.1C151.9,56.9,4.5,.2,4.5,.2C4.5,.2,1.1,-0.9,.4,1.6z"/>
            <path stroke-width="3.33333" stroke="#ffffff" id="shape32" fill="#e5d926" transform="translate(70.79,45.39)" d="M0,97.5L93.9,142.3C93.9,142.3,97.7,142.3,97.7,138.7C97.7,137,97.7,21.3,97.7,21.3C97.7,21.3,97.7,18.1,94.9,16C93.7,15,77.1,8.3,56.4,0C54.1,-0.9,0,97.5,0,97.5z"/>
            <path stroke-width="3.33333" stroke="#ffffff" id="shape33" fill="#e5d926" transform="translate(10.9,17.98)" d="M49,11.2C49,11.2,53.1,32.8,35.1,57.2C17.2,81.7,0,87,0,87L19.6,0L49,11.2z"/>
            <path stroke-width="3.66667" stroke="#ffffff" id="shape34" fill="#e5d926" transform="translate(19.35,18.44)" d="M20.4,3.6C20.4,3.6,35.2,21.1,46.7,49.7C58.2,78.3,45.5,111.8,45.5,111.8L0,96.7C0,96.7,28.3,90.8,27.2,50.7C26.6,29.5,11,0,12,0L20.4,3.6z"/>
            <path stroke-width="3.33333" stroke="#ffffff" id="shape35" fill="#e5d926" transform="translate(54.52,51.6)" d="M62.7,0C62.7,0,44.8,20.4,25.4,45.3C13.7,60.2,-2.4,75.8,.1,77.5C2.7,79.2,12.5,66.5,70.6,40.2C97.2,28.1,104.1,109.7,104.1,81.1C103.9,16.8,72.2,3.8,72.2,3.8L62.7,0z"/>
            <path stroke-width="3.66667" stroke="#ffffff" id="shape36" fill="#e5d926" transform="translate(34.06,64.01)" d="M1.1,60C28.7,36,104.1,97.6,120.5,47.1C130,17.8,120.8,0,120.8,0C120.8,0,61.5,11.8,31.3,32.1C1.1,52.4,-2.8,60,1.1,60z"/>
        </g>
    </g>
</svg>
