<?xml version="1.0" encoding="UTF-8" standalone="no"?>
<!DOCTYPE svg PUBLIC "-//W3C//DTD SVG 1.1//EN" "http://www.w3.org/Graphics/SVG/1.1/DTD/svg11.dtd">
<!-- 由 Microsoft Visio, SVG Export 生成 service-e.svg service -->
<svg xmlns="http://www.w3.org/2000/svg" xmlns:xlink="http://www.w3.org/1999/xlink" xmlns:ev="http://www.w3.org/2001/xml-events"
		xmlns:v="http://schemas.microsoft.com/visio/2003/SVGExtensions/" width="1.92085in" height="2.33651in"
		viewBox="0 0 138.301 168.229" xml:space="preserve" color-interpolation-filters="sRGB" class="st5">
	<v:documentProperties v:langID="2052"/>

	<style type="text/css">
	<![CDATA[
		.st1 {fill:#ff5959;stroke:#ffffff;stroke-linecap:butt;stroke-width:0.373905}
		.st2 {fill:#ff5959;stroke:#ffffff;stroke-linecap:butt;stroke-width:0.747811}
		.st3 {fill:#ff5959;stroke:#ffffff;stroke-linecap:butt;stroke-width:0.750982}
		.st4 {fill:url(#grad0-48);stroke:#ffffff;stroke-linecap:butt;stroke-width:0.750982}
		.st5 {fill:none;fill-rule:evenodd;font-size:12px;overflow:visible;stroke-linecap:square;stroke-miterlimit:3}
	]]>
	</style>

	<defs id="Patterns_And_Gradients">
		<linearGradient id="grad0-48" x1="0" y1="0" x2="1" y2="0" gradientTransform="rotate(90 0.5 0.5)">
			<stop offset="0" stop-color="#ff5959" stop-opacity="1"/>
			<stop offset="0.88" stop-color="#ff5959" stop-opacity="1"/>
			<stop offset="1" stop-color="#f30000" stop-opacity="1"/>
		</linearGradient>
	</defs>
	<g v:mID="0" v:index="1" v:groupContext="foregroundPage">
		<title>service</title>
		<v:pageProperties v:drawingScale="1" v:pageScale="1" v:drawingUnits="19" v:shadowOffsetX="9" v:shadowOffsetY="-9"/>
		<g id="group238-1" transform="translate(5.625,-2.268)" v:mID="238" v:groupContext="group">
			<title>工作表.238</title>
			<g id="shape239-2" v:mID="239" v:groupContext="shape" transform="translate(46.0008,-0.127966)">
				<title>shape1</title>
				<path d="M2.43 57.67 L78.31 19.53 C79.59 19.79 79.97 20.68 79.97 21.32 L79.97 125.62 C79.97 126.64 79.72 127.02 78.44
							 127.66 L2.43 168.23 C1.15 168.23 0 167.08 0 165.8 L0 59.97 C0 58.69 1.02 57.67 2.43 57.67 Z"
						class="st1"/>
			</g>
			<g id="shape240-4" v:mID="240" v:groupContext="shape" transform="translate(1.19001,-111.382)">
				<title>shape2</title>
				<path d="M0 146.6 C0 146.6 72.94 116.15 72.94 116.15 C74.73 115.38 76.01 116.15 76.01 116.15 L123.1 130.73 C123.1
							 130.73 124.76 130.99 124.76 132.53 C124.76 132.53 48.37 168.23 48.37 168.23 C48.37 168.23 48.5 167.08
							 46.83 166.31 L0 146.6 Z" class="st1"/>
			</g>
			<g id="shape241-6" v:mID="241" v:groupContext="shape">
				<title>shape3</title>
				<path d="M1.41 35.27 L48.11 54.98 C48.88 55.36 49.52 56.13 49.52 57.03 L49.26 166.82 C49.26 167.59 48.62 168.23 47.86
							 168.23 L1.41 143.02 C0.64 142.51 0 142.38 0 141.48 L0 36.68 C0 35.91 0.64 35.27 1.41 35.27 Z"
						class="st2"/>
			</g>
			<g id="shape242-8" v:mID="242" v:groupContext="shape" transform="translate(48.0737,-111.459)">
				<title>shape4</title>
				<path d="M76.26 130.86 C76.26 130.86 77.93 131.12 77.93 132.65 C77.93 132.65 1.54 168.23 1.54 168.23 C1.54 168.23
							 1.66 167.2 0 166.44 L76.26 130.86 Z" class="st1"/>
			</g>
			<g id="shape243-10" v:mID="243" v:groupContext="shape" transform="translate(48.0737,-113.161)">
				<title>shape5</title>
				<path d="M49.39 137.9 C57.07 129.71 52.33 124.85 52.33 124.85 L76.26 132.53 L0 168.23 C0 168.23 41.84 146.22 49.39
							 137.9 Z" class="st2"/>
			</g>
			<g id="shape244-12" v:mID="244" v:groupContext="shape" transform="translate(0.857317,-1.59958)">
				<title>shape6</title>
				<path d="M1.41 38.21 L46.45 57.28 C47.22 57.54 47.86 58.43 47.86 59.2 L47.6 166.95 C47.6 167.59 46.96 168.23 46.19
							 168.23 L1.41 143.92 C0.64 143.53 0 143.28 0 142.51 L0 39.62 C0 38.85 0.64 38.21 1.41 38.21 Z"
						class="st1"/>
			</g>
			<g id="shape245-14" v:mID="245" v:groupContext="shape" transform="translate(47.114,-0.127966)">
				<title>shape7</title>
				<path d="M57.33 106.42 C74.09 72.38 77.16 19.53 77.16 19.53 C78.57 19.79 78.82 20.68 78.82 21.32 L78.82 125.62 C78.82
							 126.64 78.69 127.02 77.29 127.66 L1.28 168.23 C0 168.23 40.56 140.33 57.33 106.42 Z" class="st1"/>
			</g>
			<g id="shape246-16" v:mID="246" v:groupContext="shape" transform="translate(36.6087,-2.54653)">
				<title>shape8</title>
				<path d="M6.65 56 L6.65 168.23 L0.13 164.65 L0 53.44 L6.65 56 Z" class="st1"/>
			</g>
			<g id="shape247-18" v:mID="247" v:groupContext="shape" transform="translate(3.85153,-2.52094)">
				<title>shape9</title>
				<path d="M35.44 60.1 C35.44 60.1 36.08 55.87 39.16 56 C39.16 56 3.58 40.77 3.58 40.77 C0.38 41.41 0 44.61 0 44.61
							 C0 44.61 0.26 144.04 0.26 143.66 C0 146.47 3.45 148.65 3.45 148.65 L39.41 168.23 C39.41 168.23 36.6
							 166.95 35.57 164.01 L35.44 60.1 Z" class="st1"/>
			</g>
			<g id="shape248-20" v:mID="248" v:groupContext="shape" transform="translate(3.85153,-110.678)">
				<title>shape10</title>
				<path d="M35.44 168.23 C35.44 168.23 36.08 164.01 39.16 164.13 C39.16 164.13 3.58 148.91 3.58 148.91 C0.13 149.67
							 0 152.74 0 152.74 L35.44 168.23 Z" class="st2"/>
			</g>
			<g id="shape249-22" v:mID="249" v:groupContext="shape" transform="translate(6.9609,-65.2884)">
				<title>shape11</title>
				<path d="M0 113.72 L28.53 125.87 L28.41 168.23 L0 156.07 L0 113.72 Z" class="st1"/>
			</g>
			<g id="shape250-24" v:mID="250" v:groupContext="shape" transform="translate(9.3793,-48.3585)">
				<title>shape12</title>
				<path d="M0 147.88 L23.67 157.99 L23.42 168.23 L0 156.84 L0 147.88 Z" class="st1"/>
			</g>
			<g id="shape251-26" v:mID="251" v:groupContext="shape" transform="translate(3.88992,-2.59772)">
				<title>shape13</title>
				<path d="M0.13 144.17 C0 146.47 1.28 147.37 1.28 147.37 L39.41 168.23 C39.41 168.23 36.21 166.18 35.57 163.62 L0.13
							 144.17 Z" class="st1"/>
			</g>
			<g id="shape252-28" v:mID="252" v:groupContext="shape" transform="translate(9.18737,-7.9979)">
				<title>shape14</title>
				<path d="M21.62 159.02 L0.13 147.24 L0.13 153.38 C0 155.05 2.18 156.46 2.18 156.46 L24.06 168.23 C24.06 168.23 22.26
							 167.46 21.62 165.67 L21.62 159.02 Z" class="st1"/>
			</g>
			<g id="shape253-30" v:mID="253" v:groupContext="shape" transform="translate(7.94618,-67.1183)">
				<title>shape15</title>
				<path d="M0 117.43 L26.49 128.82 L26.49 168.23 L0 156.84 L0 117.43 Z" class="st1"/>
			</g>
			<g id="shape254-32" v:mID="254" v:groupContext="shape" transform="translate(6.9737,-94.2216)">
				<title>shape16</title>
				<path d="M0 156.07 L28.53 168.23 L0 156.07 Z" class="st1"/>
			</g>
			<g id="shape255-34" v:mID="255" v:groupContext="shape" transform="translate(7.08886,-80.3885)">
				<title>shape17</title>
				<path d="M0 156.07 L28.53 168.23 L0 156.07 Z" class="st1"/>
			</g>
			<g id="shape256-36" v:mID="256" v:groupContext="shape" transform="translate(11.1067,-49.8173)">
				<title>shape18</title>
				<path d="M0 150.83 L20.22 159.4 L20.09 168.23 L0 158.5 L0 150.83 Z" class="st1"/>
			</g>
			<g id="group257-38" transform="translate(-25.6099,-25.4392) rotate(-15.0049)" v:mID="257" v:groupContext="group">
				<title>工作表.257</title>
				<g id="shape258-39" v:mID="258" v:groupContext="shape">
					<title>shape19</title>
					<path d="M0 163.47 C0 160.9 1.54 158.72 3.6 158.72 C5.53 158.72 7.07 160.9 7.07 163.47 C7.07 166.04 5.53 168.23
								 3.6 168.23 C1.54 168.23 0 166.04 0 163.47 Z" class="st3"/>
				</g>
				<g id="shape259-41" v:mID="259" v:groupContext="shape" transform="translate(0.334101,-0.192764)">
					<title>shape20</title>
					<path d="M0 163.73 C0 161.16 1.41 159.1 3.34 159.1 C5.14 159.1 6.55 161.16 6.55 163.73 C6.55 166.17 5.14 168.23
								 3.34 168.23 C1.41 168.23 0 166.17 0 163.73 Z" class="st3"/>
				</g>
				<g id="shape260-43" v:mID="260" v:groupContext="shape" transform="translate(0.488302,-0.359825)">
					<title>shape21</title>
					<path d="M0 163.86 C0 161.42 1.41 159.49 3.08 159.49 C4.88 159.49 6.3 161.42 6.3 163.86 C6.3 166.3 4.88 168.23
								 3.08 168.23 C1.41 168.23 0 166.3 0 163.86 Z" class="st3"/>
				</g>
				<g id="shape261-45" v:mID="261" v:groupContext="shape" transform="translate(1.1822,-5.51304)">
					<title>shape22</title>
					<path d="M0 166.69 C0 165.79 1.16 164.76 2.44 164.76 C3.86 164.76 4.88 165.79 4.88 166.69 C4.88 167.46 3.86 168.23
								 2.44 168.23 C1.16 168.23 0 167.46 0 166.69 Z" class="st4"/>
				</g>
				<g id="shape262-49" v:mID="262" v:groupContext="shape" transform="translate(2.37726,-7.44067)">
					<title>shape23</title>
					<path d="M0 167.46 C0 167.07 0.51 166.69 1.29 166.69 C1.93 166.69 2.44 167.07 2.44 167.46 C2.44 167.84 1.93 168.23
								 1.29 168.23 C0.51 168.23 0 167.84 0 167.46 Z" class="st4"/>
				</g>
				<g id="shape263-52" v:mID="263" v:groupContext="shape" transform="translate(2.32586,-0.42408)">
					<title>shape24</title>
					<path d="M0 167.59 C0 167.07 0.51 166.82 1.29 166.82 C1.93 166.82 2.44 167.07 2.44 167.59 C2.44 167.97 1.93 168.23
								 1.29 168.23 C0.51 168.23 0 167.97 0 167.59 Z" class="st4"/>
				</g>
			</g>
			<g id="shape264-55" v:mID="264" v:groupContext="shape" transform="translate(7.94618,-67.1183)">
				<title>shape25</title>
				<path d="M0 117.43 L4.99 119.6 L26.49 168.23 L0 156.84 L0 117.43 Z" class="st2"/>
			</g>
		</g>
	</g>
</svg>
