<svg height="507" xmlns="http://www.w3.org/2000/svg" width="379" xmlns:xlink="http://www.w3.org/1999/xlink" viewBox="0 0 379 507.348">
    <defs>
        <clipPath id="clip1">
            <path d="M7.1,112.2L230.9,0C235,.6,236,3.4,236,5.3L236,312.5C236,315.6,235.3,316.5,231.3,318.6L7.2,437.8C3.3,437.8,0,434.7,0,430.8L0,119.2C0,115.3,3.2,112.2,7.1,112.2z"/>
        </clipPath>
        <clipPath id="clip2">
            <path d="M0,91C0,91,215.2,1,215.2,1C220.4,-1.2,224.2,1,224.2,1L363.1,44.2C363.1,44.2,368.2,44.8,368.2,49.5C368.2,49.5,142.8,154.4,142.8,154.4C142.8,154.4,143.2,151.3,138.3,149L0,91z"/>
        </clipPath>
        <clipPath id="clip3">
            <path d="M4.2,0L141.8,58.1C144.1,59.1,146.2,61.6,146.2,63.9L145.5,387.3C145.5,389.6,143.6,391.4,141.2,391.4L4.2,317.2C2,315.9,0,315.3,0,313L0,4.2C0,1.9,1.9,0,4.2,0z"/>
        </clipPath>
        <clipPath id="clip4">
            <path d="M224.8,0C224.8,0,229.9,.6,229.9,5.3C229.9,5.3,4.5,110.2,4.5,110.2C4.5,110.2,4.9,107.1,0,104.8L224.8,0z"/>
        </clipPath>
        <clipPath id="clip5">
            <path d="M145.8,38.6C168.2,14.3,154.3,0,154.3,0L224.8,22.7L0,127.6C0,127.6,123.3,63,145.8,38.6z"/>
        </clipPath>
        <clipPath id="clip6">
            <path d="M4.1,0L136.9,56.1C139.1,57,141.2,59.5,141.2,61.7L140.4,379C140.4,381.2,138.6,383,136.4,383L4.1,311.3C2,310.1,0,309.5,0,307.3L0,4C0,1.8,1.8,0,4.1,0z"/>
        </clipPath>
        <clipPath id="clip7">
            <path d="M165.3,255.8C214.9,155.8,223.9,0,223.9,0C227.9,.6,228.9,3.4,228.9,5.3L228.9,312.5C228.9,315.6,228.3,316.5,224.2,318.6L0,437.8C-3.8,437.8,115.8,355.8,165.3,255.8z"/>
        </clipPath>
        <clipPath id="clip8">
            <path d="M19.7,7.5L19.7,338L.4,327.6L0,0L19.7,7.5z"/>
        </clipPath>
        <clipPath id="clip9">
            <path d="M104.6,56.9C104.6,56.9,106.4,44.4,115.4,44.7C115.4,44.7,10.4,0,10.4,0C1.3,1.9,0,11.3,0,11.3C0,11.3,.6,304,.6,303C0,311.2,10.1,317.8,10.1,317.8L116.4,375.2C116.4,375.2,108.1,371.6,105,363L104.6,56.9z"/>
        </clipPath>
        <clipPath id="clip10">
            <path d="M104.6,57C104.6,57,106.4,44.5,115.4,44.8C115.4,44.8,10.4,0,10.4,0C.4,2.4,0,11.4,0,11.4L104.6,57z"/>
        </clipPath>
        <clipPath id="clip11">
            <path d="M0,0L84.1,35.9L84,160.5L0,124.7L0,0z"/>
        </clipPath>
        <clipPath id="clip12">
            <path d="M0,0L69.8,29.8L69.2,59.8L0,26.5L0,0z"/>
        </clipPath>
        <clipPath id="clip13">
            <path d="M0,0C-0.4,6.9,3.5,9.5,3.5,9.5L115.9,71C115.9,71,106.3,64.9,104.6,57.2L0,0z"/>
        </clipPath>
        <clipPath id="clip14">
            <path d="M63.3,34.8L0,0L0,18C-0.2,23,5.9,27,5.9,27L70.4,61.9C70.4,61.9,65.4,59.7,63.5,54.4L63.3,34.8z"/>
        </clipPath>
        <clipPath id="clip15">
            <path d="M0,0L78.3,33.4L78.2,149.5L0,116.1L0,0z"/>
        </clipPath>
        <clipPath id="clip16">
            <path d="M.3,0L84.5,35.9L84.1,39.1L0,3.3L.3,0z"/>
        </clipPath>
        <clipPath id="clip17">
            <path d="M.3,0L84.5,35.9L84.1,39.1L0,3.3L.3,0z"/>
        </clipPath>
        <clipPath id="clip18">
            <path d="M0,0L59.6,25.4L59.1,51.1L0,22.7L0,0z"/>
        </clipPath>
        <clipPath id="clip19">
            <path d="M0,0L14.8,6.3L78.2,149.5L0,116.1L0,0z"/>
        </clipPath>
    </defs>
    <g transform="translate(3.67,3.67)">
        <g id="shape1" transform="translate(135.71,44.23)">
            <path stroke-width="3.66667" stroke="#ffffff" fill="#e5d926" d="M11.5,110L227.4,1.8C229.3,.8,232.6,-0.2,234.5,1.7C235.6,2.8,236,4.2,236,5.3L236,308.5C236,310.7,236.7,314.3,234.9,316.2C234.2,317,233.1,317.7,231.3,318.6L11.6,435.5C9.1,436.8,5.1,438.3,2.5,436.1C1,434.9,0,432.9,0,430.8L0,124.2C0,121.5,-0.5,117.2,1.7,114.6C0,117.1,1,115.2,2.5,113.9C5,111.7,9.1,111.2,11.5,110z"/>
            <g clip-path="url(#clip1)">
                <path fill="#ffffff" fill-opacity="0.08" d="M7.1,112.2L230.9,0C233.3,.4,234.7,1.5,235.4,2.8C234.7,2.4,233.9,2.2,232.9,2L9.1,114.2C5.2,114.2,2,117.3,2,121.2L2,432.8C2,434.2,2.4,435.5,3.1,436.6C1.3,435.3,0,433.2,0,430.8L0,119.2C0,115.3,3.2,112.2,7.1,112.2z"/>
            </g>
        </g>
        <g id="shape2" transform="translate(3.52,0)">
            <path stroke-width="3.66667" stroke="#ffffff" fill="#e5d926" d="M6.5,88.3C42.3,73.3,215.2,1,215.2,1C217.2,.1,218.9,-0.1,220.4,0C223.1,.1,226,1.5,228.1,2.1L359.3,43C361.4,43.7,364.7,44,366.7,45.9C363.1,44.2,365.2,44.5,366.7,45.9C368.6,47.8,367,50.1,364.5,51.2C368.2,49.5,171.1,141.2,145.5,153.1C143.7,154,143,153.2,141.8,151.6C142.8,154.4,143,152.5,140.9,150.6C139.3,149.3,137.1,148.5,135.5,147.9L6.5,93.7C2.9,92.2,2.1,90.1,6.5,88.3z"/>
            <g clip-path="url(#clip2)">
                <path fill="#ffffff" fill-opacity="0.08" d="M0,91L215.2,1C220.4,-1.2,224.2,1,224.2,1L363.1,44.2C363.1,44.2,366.3,44.6,367.6,47.1C366.4,46.4,365.1,46.2,365.1,46.2L226.2,3C226.2,3,222.4,.8,217.2,3L3.4,92.4L0,91zM142.1,152C142.9,153.3,142.8,154.4,142.8,154.4L144,153.8C143.6,153.3,143,152.6,142.1,152z"/>
            </g>
        </g>
        <g id="shape3" transform="translate(0,90.96)">
            <path stroke-width="3.66667" stroke="#ffffff" fill="#e5d926" d="M7,1.2L139.1,56.9C140.6,57.6,142.9,58.4,144.3,59.8C143.2,58.7,144.5,59.8,145.3,61.1C146.4,62.8,146.2,65.3,146.2,66.9L145.5,384.3C145.5,385.9,145.8,388.5,144.4,390C145.5,388.5,144.9,389.7,144,390.4C142.5,391.7,140.1,390.8,138.6,390L6.9,318.6C5.4,317.8,3.3,316.8,1.6,315.7C.7,315.1,0,314.3,0,313L0,7.2C0,5.5,-0.3,2.9,1,1.4C0,2.9,.6,1.8,1.5,1C3,-0.3,5.5,.5,7,1.2z"/>
            <g clip-path="url(#clip3)">
                <path fill="#ffffff" fill-opacity="0.08" d="M4.2,0L141.8,58.1C143.1,58.6,144.3,59.6,145.1,60.8C144.7,60.5,144.3,60.3,143.8,60.1L6.2,2C3.9,2,2,3.9,2,6.2L2,315C2,315.4,2.1,315.8,2.2,316.1C.9,315.3,0,314.5,0,313L0,4.2C0,1.9,1.9,0,4.2,0z"/>
            </g>
        </g>
        <g id="shape4" transform="translate(141.84,44.23)">
            <path stroke-width="3.66667" stroke="#ffffff" fill="#e5d926" d="M228.4,1.7C229.2,2.5,229.9,3.6,228.4,1.7C230.3,3.5,228.7,5.8,226.2,7C229.9,5.3,32.8,97,7.2,108.9C5.4,109.7,4.7,109,3.5,107.4C4.5,110.2,4.7,108.3,2.5,106.4C1,105.1,1.2,104.2,2.7,103.5L221.2,1.7C223.2,.8,226.4,-0.2,228.4,1.7z"/>
            <g clip-path="url(#clip4)">
                <path fill="#ffffff" fill-opacity="0.08" d="M224.8,0C224.8,0,228,.4,229.3,2.9C228,2.1,226.8,2,226.8,2L2.7,106.5C2,105.9,1.2,105.3,0,104.8L224.8,0zM3.8,107.8C4.6,109.1,4.5,110.2,4.5,110.2L5.6,109.6C5.2,109,4.7,108.4,3.8,107.8z"/>
            </g>
        </g>
        <g id="shape5" transform="translate(141.84,21.53)">
            <path stroke-width="3.66667" stroke="#ffffff" fill="#e5d926" d="M145.8,38.6C159.6,23.7,159.6,12.5,157.6,6.1C156.2,1.6,157.3,1,161,2.1L218.1,20.6C221.8,21.7,222,24,218.5,25.7L6.3,124.7C2.8,126.3,2,126.6,6.2,124.3C31.5,110.9,126.4,59.7,145.8,38.6z"/>
            <g clip-path="url(#clip5)">
                <path fill="#ffffff" fill-opacity="0.08" d="M145.8,38.6C168.2,14.3,154.3,0,154.3,0L224.8,22.7L223.1,23.5L156.3,2C156.3,2,170.2,16.3,147.8,40.6C133.7,55.9,79.9,87.1,41.7,108.1L0,127.6C0,127.6,123.3,63,145.8,38.6z"/>
            </g>
        </g>
        <g id="shape6" transform="translate(2.53,94.95)">
            <path stroke-width="3.66667" stroke="#ffffff" fill="#e5d926" d="M6.8,1.2L134.2,54.9C135.7,55.6,138,56.3,139.4,57.8C138.2,56.6,139.4,57.7,140.2,58.9C141.3,60.6,141.2,63.1,141.2,64.7L140.4,376C140.4,377.6,140.7,380.2,139.4,381.7C140.4,380.2,139.9,381.2,139.1,382C137.6,383.3,135.2,382.4,133.7,381.6L6.7,312.7C5.3,312,3.1,311,1.5,309.8C.6,309.2,0,308.5,0,307.3L0,7C0,5.4,-0.3,2.8,1.1,1.3C0,2.9,.5,1.8,1.3,1C2.8,-0.3,5.3,.5,6.8,1.2z"/>
            <g clip-path="url(#clip6)">
                <path fill="#ffffff" fill-opacity="0.08" d="M4.1,0L136.9,56.1C138.1,56.6,139.3,57.6,140.1,58.7C139.7,58.5,139.3,58.2,138.9,58.1L6.1,2C3.8,2,2,3.8,2,6L2,309.3C2,309.6,2.1,310,2.2,310.3C.9,309.6,0,308.8,0,307.3L0,4C0,1.8,1.8,0,4.1,0z"/>
            </g>
        </g>
        <g id="shape7" transform="translate(142.77,44.23)">
            <path stroke-width="3.66667" stroke="#ffffff" fill="#e5d926" d="M165.3,255.8C210.2,165.3,221.8,28.9,223.6,4C223.8,1.3,225.5,-0.2,227.4,1.7C228.6,2.8,228.9,4.2,228.9,5.3L228.9,308.5C228.9,310.7,229.7,314.3,227.8,316.2C227.1,317,226,317.7,224.2,318.6L6.2,434.5C2.8,436.3,1.4,436.2,5.1,433.2C28.1,414.7,122.7,341.9,165.3,255.8z"/>
            <g clip-path="url(#clip7)">
                <path fill="#ffffff" fill-opacity="0.08" d="M165.3,255.8C214.9,155.8,223.9,0,223.9,0C226.3,.4,227.6,1.5,228.3,2.8C227.6,2.4,226.8,2.2,225.9,2C225.9,2,216.9,157.8,167.3,257.8C127,339.3,40.1,408.8,11.4,431.8L0,437.8C-3.8,437.8,115.8,355.8,165.3,255.8z"/>
            </g>
        </g>
        <g id="shape8" transform="translate(108.02,136.99)">
            <path stroke-width="3.66667" stroke="#ffffff" fill="#e5d926" d="M19.7,14.5L19.7,331C19.7,334.9,17,336.5,13.6,334.7L6.6,330.9C3.2,329.1,.4,324.5,.4,320.6L0,7C0,3.1,2.9,1.1,6.5,2.5L13.2,5C16.8,6.4,19.7,10.6,19.7,14.5z"/>
            <g clip-path="url(#clip8)">
                <path fill="#ffffff" fill-opacity="0.08" d="M19.7,7.5L19.7,8.7L2,2L2.4,328.7L.4,327.6L0,0L19.7,7.5z"/>
            </g>
        </g>
        <g id="shape9" transform="translate(11.37,99.77)">
            <path stroke-width="3.66667" stroke="#ffffff" fill="#e5d926" d="M106.9,50.3C108.5,47.4,111.1,44.6,109.1,47.2C112.5,43.9,113.3,43.8,109,42C115.4,44.7,39.7,12.5,16.9,2.7C12.5,.9,7.7,-0.1,4.3,3.2C6.7,.8,4.3,2.8,2.7,5C-0.1,8.8,0,13.6,0,18.3C0,11.3,.5,251.6,.6,296C.6,300.7,0,305.6,2.3,309.7C.3,306.9,2.5,310.5,4.8,313.1C8,316.7,12.8,319.3,16.2,321.1L110.2,371.9C113.6,373.7,114.1,374.5,110.6,371.3C116.4,375.2,112,373.3,108.5,369C105.5,365.4,105,359.9,105,356L104.6,63.9C104.6,60.1,104.6,54.5,106.9,50.3z"/>
            <g clip-path="url(#clip9)">
                <path fill="#ffffff" fill-opacity="0.08" d="M104.6,56.9C104.6,56.9,106.1,46.5,113.2,44.9L117.4,46.7C108.4,46.4,106.6,58.9,106.6,58.9L107,365C108,367.7,109.4,369.8,111,371.6C108.7,369.6,106.4,366.8,105,363L104.6,56.9zM114.5,374.2C115.7,374.9,116.4,375.2,116.4,375.2L114.5,374.2zM.6,303C.6,303,.6,303,.6,303C.6,303,.6,303,.6,303zM116.5,376.2C117.7,376.9,118.4,377.2,118.4,377.2L116.5,376.2zM2.6,305C2.6,305,2.6,305,2.6,305C2.6,305,2.6,305,2.6,305z"/>
            </g>
        </g>
        <g id="shape10" transform="translate(11.37,99.69)">
            <path stroke-width="3.66667" stroke="#ffffff" fill="#e5d926" d="M106.9,50.4C108.5,47.5,111.1,44.7,109.1,47.3C112.5,44,113.3,43.9,109,42.1C115.4,44.8,39.7,12.5,16.9,2.7C12.5,.9,7.7,-0,4.2,3.1C6.5,.9,4,2.9,2.5,5C-0.3,8.8,2.9,12.7,6.4,14.2L98.2,54.2C101.7,55.8,104.6,54.5,106.9,50.4z"/>
            <g clip-path="url(#clip10)">
                <path fill="#ffffff" fill-opacity="0.08" d="M0,11.4C0,11.4,.4,2.4,10.4,0L115.4,44.8C114.6,44.8,113.9,44.8,113.2,45L12.4,2C4.5,3.9,2.6,9.9,2.1,12.4L0,11.4z"/>
            </g>
        </g>
        <g id="shape11" transform="translate(20.52,129.71)">
            <path stroke-width="3.66667" stroke="#ffffff" fill="#e5d926" d="M6.4,2.7L77.7,33.1C81.2,34.6,84.1,39,84.1,42.9L84,153.5C84,157.4,81.1,159.3,77.5,157.8L6.4,127.4C2.9,125.9,0,121.5,0,117.7L0,7C0,3.1,2.9,1.2,6.4,2.7z"/>
            <g clip-path="url(#clip11)">
                <path fill="#ffffff" fill-opacity="0.08" d="M0,0L84.1,35.9L84.1,37L2,2L2,125.5L0,124.7L0,0z"/>
            </g>
        </g>
        <g id="shape12" transform="translate(27.68,280.22)">
            <path stroke-width="3.66667" stroke="#ffffff" fill="#e5d926" d="M6.4,2.7L63.4,27C66.9,28.5,69.8,32.9,69.7,36.8L69.3,52.8C69.3,56.7,66.4,58.4,62.9,56.8L6.3,29.6C2.8,27.9,0,23.4,0,19.5L0,7C0,3.1,2.9,1.2,6.4,2.7z"/>
            <g clip-path="url(#clip12)">
                <path fill="#ffffff" fill-opacity="0.08" d="M0,0L69.8,29.8L69.8,30.9L2,2L2,27.5L0,26.5L0,0z"/>
            </g>
        </g>
        <g id="shape13" transform="translate(11.86,404.06)">
            <path stroke-width="3.66667" stroke="#ffffff" fill="#e5d926" d="M.5,4.9C1.5,8.2,3.5,9.5,.7,5.4C1.8,8.6,5.4,10.5,7.9,11.9L109.8,67.6C113.1,69.4,113.8,69.9,110.5,66.6C115.9,71,111.1,67.9,107.7,63.4C104.9,59.7,101.9,55.7,98.5,53.8L4.4,2.4C2,1.1,-0.5,1.7,.5,4.9z"/>
            <g clip-path="url(#clip13)">
                <path fill="#ffffff" fill-opacity="0.08" d="M104.6,57.2C104.7,57.6,104.8,57.9,104.9,58.3L2,2C1.8,5.7,2.8,8.1,3.8,9.6C3.5,9.5,-0.4,6.9,0,0L104.6,57.2zM113.8,69.8L115.9,71C115.9,71,113.8,69.6,111.3,67.4C112.2,68.3,113,69.1,113.8,69.8z"/>
            </g>
        </g>
        <g id="shape14" transform="translate(27.49,397.18)">
            <path stroke-width="3.66667" stroke="#ffffff" fill="#e5d926" d="M57.1,31.4L6.1,3.4C2.7,1.5,0,3.1,0,7L0,13C0,15.8,-0.4,19.9,1.5,22.7C-0.1,20.1,1,22.1,2.2,23.6C4.3,26.2,7.9,28.1,10.3,29.4L66,59.5C68.5,60.8,68.7,61.3,66.4,58.9C70.4,61.9,68.2,60.9,66.1,58.7C63.8,56.2,63.5,52.2,63.5,49.4L63.4,41.8C63.3,37.9,60.5,33.3,57.1,31.4z"/>
            <g clip-path="url(#clip14)">
                <path fill="#ffffff" fill-opacity="0.08" d="M63.3,35.7L65.3,36.8L65.5,56.4C66,57.8,66.8,59,67.6,60C66.1,58.8,64.4,57,63.5,54.4L63.3,35.7zM69.3,61.3C70,61.7,70.4,61.9,70.4,61.9L69.3,61.3zM71.3,63.3C72,63.7,72.4,63.9,72.4,63.9L71.3,63.3z"/>
            </g>
        </g>
        <g id="shape15" transform="translate(23.43,135.24)">
            <path stroke-width="3.66667" stroke="#ffffff" fill="#e5d926" d="M6.4,2.7L71.9,30.6C75.4,32.2,78.3,36.5,78.3,40.4L78.2,142.5C78.2,146.3,75.3,148.2,71.7,146.7L6.4,118.8C2.9,117.3,0,112.9,0,109.1L0,7C0,3.1,2.9,1.2,6.4,2.7z"/>
            <g clip-path="url(#clip15)">
                <path fill="#ffffff" fill-opacity="0.08" d="M0,0L78.3,33.4L78.3,34.5L2,2L2,116.9L0,116.1L0,0z"/>
            </g>
        </g>
        <g id="shape16" transform="translate(20.19,169.27)">
            <path stroke-width="3.66667" stroke="#ffffff" fill="#e5d926" d="M1.3,.4L83.5,35.5C84,35.7,84.4,36.3,84.4,36.9L84.2,38.1C84.2,38.7,83.7,39,83.2,38.7L.9,3.7C.4,3.4,0,2.8,.1,2.3L.2,1C.3,.4,.7,.2,1.3,.4z"/>
            <g clip-path="url(#clip16)">
                <path fill="#ffffff" fill-opacity="0.08" d="M.3,0L84.5,35.9L84.3,37L2.3,2L2.1,4.2L0,3.3L.3,0z"/>
            </g>
        </g>
        <g id="shape17" transform="translate(20.52,209.99)">
            <path stroke-width="3.66667" stroke="#ffffff" fill="#e5d926" d="M1.3,.4L83.5,35.5C84,35.7,84.4,36.3,84.4,36.9L84.2,38.1C84.2,38.7,83.7,39,83.2,38.7L.9,3.7C.4,3.4,0,2.8,.1,2.3L.2,1C.3,.4,.7,.2,1.3,.4z"/>
            <g clip-path="url(#clip17)">
                <path fill="#ffffff" fill-opacity="0.08" d="M.3,0L84.5,35.9L84.3,37L2.3,2L2.1,4.2L0,3.3L.3,0z"/>
            </g>
        </g>
        <g id="shape18" transform="translate(32.76,284.58)">
            <path stroke-width="3.66667" stroke="#ffffff" fill="#e5d926" d="M6.4,2.7L53.2,22.7C56.8,24.2,59.6,28.6,59.5,32.4L59.3,44.1C59.2,48,56.3,49.7,52.8,48.1L6.3,25.7C2.8,24,0,19.5,0,15.7L0,7C0,3.1,2.9,1.2,6.4,2.7z"/>
            <g clip-path="url(#clip18)">
                <path fill="#ffffff" fill-opacity="0.08" d="M0,0L59.6,25.4L59.6,26.6L2,2L2,23.6L0,22.7L0,0z"/>
            </g>
        </g>
        <g transform="matrix(0.97,-0.26,0.26,0.97,45.7,363.6)">
            <path stroke="#ffffff" id="shape19" fill="#ffffff" d="M0,14C0,6.2,4.7,0,10.4,0C16.2,0,20.9,6.2,20.9,14C20.9,21.7,16.2,27.9,10.4,27.9C4.7,27.9,0,21.7,0,14z"/>
            <path id="shape20" fill="#ffffff" transform="translate(0.97,0.57)" d="M0,13.4C0,6,4.3,0,9.7,0C15,0,19.3,6,19.3,13.4C19.3,20.8,15,26.8,9.7,26.8C4.3,26.8,0,20.8,0,13.4z"/>
            <path stroke="#ffffff" id="shape21" fill="#ffffff" transform="translate(1.43,1.2)" d="M0,12.8C0,5.7,4.1,0,9.2,0C14.3,0,18.4,5.7,18.4,12.8C18.4,19.8,14.3,25.5,9.2,25.5C4.1,25.5,0,19.8,0,12.8z"/>
            <path id="shape22" fill="#ffffff" transform="translate(3.45,1.54)" d="M0,5.6C0,3.2,3.2,0,7.2,0C11.2,0,14.4,3.2,14.4,5.6C14.4,8.1,11.2,10.1,7.2,10.1C3.2,10.1,0,8.1,0,5.6z"/>
            <path id="shape23" fill="#ffffff" transform="translate(7,1.54)" d="M0,2.3C0,1,1.6,0,3.6,0C5.6,0,7.3,1,7.3,2.3C7.3,3.6,5.6,4.6,3.6,4.6C1.6,4.6,0,3.6,0,2.3z"/>
            <path id="shape24" fill="#ffffff" transform="translate(6.81,22.52)" d="M0,2.1C0,.9,1.6,0,3.6,0C5.6,0,7.2,.9,7.2,2.1C7.2,3.2,5.6,4.2,3.6,4.2C1.6,4.2,0,3.2,0,2.1z"/>
        </g>
        <g id="shape25" transform="translate(23.43,135.24)">
            <path stroke-width="3.66667" stroke="#ffffff" fill="#e5d926" d="M6.4,2.7L8.4,3.6C11.9,5.1,16.1,9.2,17.7,12.7L75.3,143.1C76.9,146.6,75.3,148.2,71.7,146.7L6.4,118.8C2.9,117.3,0,112.9,0,109.1L0,7C0,3.1,2.9,1.2,6.4,2.7z"/>
            <g clip-path="url(#clip19)">
                <path fill="#ffffff" fill-opacity="0.08" d="M0,0L14.8,6.3L15.5,7.7L2,2L2,116.9L0,116.1L0,0z"/>
            </g>
        </g>
    </g>
</svg>
